<svg width="20" height="20" viewBox="0 0 20 20" fill="none" xmlns="http://www.w3.org/2000/svg">
    <path fill-rule="evenodd" clip-rule="evenodd" d="M9.10611 4.29981C9.2627 4.46844 9.25293 4.73208 9.0843 4.88866L3.57979 10L9.0843 15.1113C9.25293 15.2679 9.2627 15.5316 9.10611 15.7002C8.94953 15.8688 8.68589 15.8786 8.51726 15.722L2.68393 10.3053C2.59902 10.2265 2.55078 10.1159 2.55078 10C2.55078 9.88414 2.59902 9.77351 2.68393 9.69467L8.51726 4.278C8.68589 4.12142 8.94953 4.13118 9.10611 4.29981Z" fill="#2AB514"/>
    <path fill-rule="evenodd" clip-rule="evenodd" d="M3.38379 10C3.38379 9.76988 3.57034 9.58333 3.80046 9.58333H18.8005C19.0306 9.58333 19.2171 9.76988 19.2171 10C19.2171 10.2301 19.0306 10.4167 18.8005 10.4167H3.80046C3.57034 10.4167 3.38379 10.2301 3.38379 10Z" fill="#2AB514"/>
</svg>
