<svg width="24" height="24" viewBox="0 0 24 24" fill="none" xmlns="http://www.w3.org/2000/svg">
    <path d="M17.3604 14.8563L16.6667 14.2354V8.83334C16.6667 7.72827 16.2277 6.66846 15.4463 5.88706C14.6649 5.10566 13.6051 4.66667 12.5 4.66667C11.3949 4.66667 10.3351 5.10566 9.55373 5.88706C8.77233 6.66846 8.33334 7.72827 8.33334 8.83334V14.2354L7.63959 14.8563C6.63286 15.7546 5.8957 16.9152 5.51042 18.2083H19.4896C19.1043 16.9152 18.3671 15.7546 17.3604 14.8563ZM15.625 20.2917C15.625 21.1205 15.2958 21.9153 14.7097 22.5014C14.1237 23.0874 13.3288 23.4167 12.5 23.4167C11.6712 23.4167 10.8763 23.0874 10.2903 22.5014C9.70425 21.9153 9.37501 21.1205 9.37501 20.2917H3.12501C3.12359 18.9724 3.4013 17.6678 3.93988 16.4636C4.47847 15.2593 5.26575 14.1826 6.25001 13.3042V8.83334C6.25001 7.17573 6.90849 5.58602 8.08059 4.41392C9.25269 3.24182 10.8424 2.58334 12.5 2.58334C14.1576 2.58334 15.7473 3.24182 16.9194 4.41392C18.0915 5.58602 18.75 7.17573 18.75 8.83334V13.3042C19.7343 14.1826 20.5215 15.2593 21.0601 16.4636C21.5987 17.6678 21.8764 18.9724 21.875 20.2917H15.625ZM12.5 21.3333C12.7763 21.3333 13.0412 21.2236 13.2366 21.0282C13.4319 20.8329 13.5417 20.5679 13.5417 20.2917H11.4583C11.4583 20.5679 11.5681 20.8329 11.7634 21.0282C11.9588 21.2236 12.2237 21.3333 12.5 21.3333Z" fill="#152536" fill-opacity="0.7"/>
</svg>
