<svg width="24" height="24" viewBox="0 0 24 24" fill="none" xmlns="http://www.w3.org/2000/svg">
    <path d="M13.9579 11.9L17.4929 8.364C17.5884 8.27175 17.6646 8.16141 17.717 8.0394C17.7694 7.9174 17.797 7.78618 17.7981 7.6534C17.7993 7.52062 17.774 7.38894 17.7237 7.26604C17.6734 7.14315 17.5992 7.0315 17.5053 6.9376C17.4114 6.84371 17.2997 6.76946 17.1768 6.71918C17.0539 6.6689 16.9222 6.64359 16.7895 6.64475C16.6567 6.6459 16.5255 6.67349 16.4035 6.7259C16.2815 6.77831 16.1711 6.85449 16.0789 6.95L12.5429 10.485L9.00786 6.95C8.91562 6.85449 8.80527 6.77831 8.68327 6.7259C8.56126 6.67349 8.43004 6.6459 8.29726 6.64475C8.16448 6.64359 8.0328 6.6689 7.90991 6.71918C7.78701 6.76946 7.67536 6.84371 7.58147 6.9376C7.48757 7.0315 7.41332 7.14315 7.36304 7.26604C7.31276 7.38894 7.28746 7.52062 7.28861 7.6534C7.28977 7.78618 7.31735 7.9174 7.36976 8.0394C7.42217 8.16141 7.49835 8.27175 7.59386 8.364L11.1289 11.899L7.59386 15.435C7.49835 15.5272 7.42217 15.6376 7.36976 15.7596C7.31735 15.8816 7.28977 16.0128 7.28861 16.1456C7.28746 16.2784 7.31276 16.4101 7.36304 16.533C7.41332 16.6558 7.48757 16.7675 7.58147 16.8614C7.67536 16.9553 7.78701 17.0295 7.90991 17.0798C8.0328 17.1301 8.16448 17.1554 8.29726 17.1542C8.43004 17.1531 8.56126 17.1255 8.68327 17.0731C8.80527 17.0207 8.91562 16.9445 9.00786 16.849L12.5429 13.314L16.0789 16.849C16.1711 16.9445 16.2815 17.0207 16.4035 17.0731C16.5255 17.1255 16.6567 17.1531 16.7895 17.1542C16.9222 17.1554 17.0539 17.1301 17.1768 17.0798C17.2997 17.0295 17.4114 16.9553 17.5053 16.8614C17.5992 16.7675 17.6734 16.6558 17.7237 16.533C17.774 16.4101 17.7993 16.2784 17.7981 16.1456C17.797 16.0128 17.7694 15.8816 17.717 15.7596C17.6646 15.6376 17.5884 15.5272 17.4929 15.435L13.9579 11.899V11.9Z" fill="black" fill-opacity="0.7"/>
</svg>
