<svg width="24" height="24" viewBox="0 0 24 24" fill="none" xmlns="http://www.w3.org/2000/svg">
    <path d="M10.4673 16.5C11.2527 16.5 12.0305 16.3448 12.7562 16.0433C13.4819 15.7417 14.1412 15.2998 14.6967 14.7426C15.2521 14.1855 15.6927 13.5241 15.9932 12.7961C16.2938 12.0681 16.4485 11.2879 16.4485 10.5C16.4485 9.71207 16.2938 8.93185 15.9932 8.2039C15.6927 7.47595 15.2521 6.81451 14.6967 6.25736C14.1412 5.70021 13.4819 5.25825 12.7562 4.95672C12.0305 4.65519 11.2527 4.5 10.4673 4.5C8.88092 4.5 7.35955 5.13214 6.23784 6.25736C5.11613 7.38258 4.48596 8.9087 4.48596 10.5C4.48596 12.0913 5.11613 13.6174 6.23784 14.7426C7.35955 15.8679 8.88092 16.5 10.4673 16.5V16.5ZM16.7675 15.406L20.3364 18.986C20.4315 19.0783 20.5074 19.1887 20.5595 19.3108C20.6117 19.4328 20.6391 19.564 20.6402 19.6968C20.6412 19.8296 20.6159 19.9613 20.5657 20.0841C20.5155 20.207 20.4414 20.3186 20.3477 20.4124C20.2541 20.5062 20.1427 20.5804 20.0202 20.6306C19.8976 20.6808 19.7663 20.706 19.634 20.7047C19.5016 20.7035 19.3708 20.6758 19.2492 20.6233C19.1276 20.5708 19.0177 20.4946 18.9258 20.399L15.357 16.819C13.7544 18.0668 11.7381 18.6552 9.71835 18.4642C7.69863 18.2732 5.82737 17.3173 4.48552 15.7911C3.14366 14.2648 2.43207 12.2829 2.49562 10.2489C2.55916 8.2149 3.39305 6.28162 4.82754 4.84265C6.26203 3.40367 8.18928 2.56717 10.217 2.50343C12.2446 2.43968 14.2203 3.1535 15.7418 4.49955C17.2633 5.8456 18.2162 7.72271 18.4066 9.74875C18.597 11.7748 18.0105 13.7975 16.7665 15.405L16.7675 15.406Z" fill="#ABB5BE"/>
</svg>
