<svg width="214" height="170" viewBox="0 0 214 170" fill="none" xmlns="http://www.w3.org/2000/svg">
<path fill-rule="evenodd" clip-rule="evenodd" d="M110.436 194.714C139.407 194.714 164.832 173.163 150.553 143.892C136.275 114.62 189.328 115.566 204.912 95.3354C223.918 70.6635 218.414 -34.0646 96.4054 29.7828C76.8612 40.0104 26.6672 19.261 10.0176 29.5564C-9.58059 41.6752 -37.1541 66.4906 -9.58059 91.9104C4.0016 104.432 -44.6937 136.931 -23.3661 166.042C-2.55576 194.448 12.0319 167.369 43.7155 173.163C75.399 178.957 88.9188 194.714 110.436 194.714Z" fill="#50C55A"/>
<path d="M76.8086 143.79C76.8086 143.79 83.4794 140.652 85.9698 138.469C88.4602 136.286 91.5563 130.862 91.5563 130.862C91.5563 130.862 125.566 155.423 147.741 151.92C152.85 151.113 162.806 147.716 163.441 141.733C165.174 125.393 141.188 121.218 146.428 112.932C149.626 107.874 159.561 115.401 159.561 115.401L200.768 135.67C200.768 135.67 186.532 170.762 151.985 172.168C109.487 173.898 76.8086 143.79 76.8086 143.79Z" fill="white"/>
<path fill-rule="evenodd" clip-rule="evenodd" d="M44.138 6.36205C43.7512 6.21021 41.6741 3.66696 39.0373 3.20408C37.839 2.99374 38.9266 4.51951 37.6078 4.53324C33.6802 4.57413 27.2974 3.83624 26.115 4.53324C25.2363 5.04961 27.1716 6.85355 26.115 6.93637C16.1464 7.71774 0.938534 17.6711 -2.36098 22.4999C-3.41103 24.0367 5.08155 21.4294 3.72844 22.1891C2.20973 23.0418 0.525382 28.6252 -0.481678 32.9375C-1.17887 35.907 -1.61785 39.7287 -1.77278 43.886C-1.90189 47.4753 -1.85025 48.0692 -1.33381 50.0317C-0.739899 52.2266 -0.275102 52.8721 0.525382 52.5623C0.809424 52.459 0.938534 52.0716 0.938534 51.3486C0.938534 50.7805 1.2484 49.0763 1.63573 47.5528L2.3071 44.8156L2.59115 45.9518C2.95265 47.2687 5.07006 51.3486 6.98089 54.3182C7.08394 54.4758 7.52734 54.2753 7.92718 53.3089C8.29153 52.4282 8.14367 51.0213 8.76262 49.5134C10.1725 46.0787 12.9409 41.6129 16.1464 38.0383C20.8839 32.7552 22.4557 26.6411 26.8966 21.7331C35.1842 12.5739 45.5858 6.93044 44.138 6.36205Z" fill="white"/>
<path fill-rule="evenodd" clip-rule="evenodd" d="M3.84644 23.4353C2.517 24.5044 0.543578 33.1757 0.509728 33.3206C-0.187467 36.2902 -0.859522 46.6023 -0.17256 48.5547C0.514403 50.507 2.43799 43.4692 2.43799 43.4692C2.43799 43.4692 5.34546 51.0189 7.9145 53.0889C8.02425 53.1773 4.86085 43.7482 3.84644 38.2438C2.50738 30.9775 4.60307 22.8269 3.84644 23.4353Z" fill="#E7EAEE"/>
<path fill-rule="evenodd" clip-rule="evenodd" d="M53.3987 175.301C55.8776 174.758 60.0602 172.87 61.6617 172.224C63.2632 171.578 68.143 164.688 69.8989 156.915C71.1642 151.183 71.8098 143.023 71.0868 141.654C70.9799 141.46 70.5894 137.75 71.6292 138.961C73.9404 141.654 76.6838 145.882 85.3403 138.306C87.698 136.243 90.823 133.58 90.0002 131.225C87.698 124.638 77.7184 111.374 76.197 110.369C74.3779 109.168 65.1837 110.189 51.5009 106.15C35.9836 101.57 29.5222 88.0837 23.4497 89.8393C18.5389 91.2591 6.773 99.9841 3.82013 105.509C-10.1204 131.594 6.773 149.871 10.6203 155.121L14.3557 156.735L14.4848 160.066L14.6656 162.157C15.0013 166.16 15.1304 166.521 16.9379 167.864C21.4568 171.298 30.3654 174.5 38.4219 175.636C42.1661 176.153 50.3 175.972 53.3987 175.301Z" fill="white"/>
<path fill-rule="evenodd" clip-rule="evenodd" d="M15.8252 158.846L16.0059 160.938C16.3416 164.94 16.4707 165.302 18.2783 166.644C20.9441 168.67 25.1376 170.616 29.7827 172.103C33.0115 173.138 36.4585 173.951 39.7622 174.417C43.5064 174.933 51.6404 174.753 54.739 174.081C56.2706 173.749 43.6722 163.852 36.2503 166.644C30.5507 168.789 17.1169 152.429 22.5789 148.155C28.7061 143.361 17.4784 124.45 17.1169 120.345C16.7554 116.239 15.3317 115.258 15.2902 115.402C15.2486 115.546 15.2486 116.038 15.3604 117.221C15.8421 122.323 15.8252 158.846 15.8252 158.846Z" fill="#E7EAEE"/>
<path fill-rule="evenodd" clip-rule="evenodd" d="M14.479 119.173C15.0212 119.067 15.5462 119.421 15.6517 119.963C17.6005 129.976 25.844 136.754 40.5846 140.299C55.4128 143.864 65.513 143.672 70.8349 139.866C71.2841 139.545 70.9492 142.296 70.6202 142.507C67.1491 144.733 55.3478 148.054 41.2647 145.052C23.2581 141.214 14.8034 126.073 13.6885 120.345C13.583 119.803 13.9369 119.278 14.479 119.173Z" fill="#FFB61D"/>
<path fill-rule="evenodd" clip-rule="evenodd" d="M6.97034 101.108C7.44971 100.834 25.3344 121.331 49.8782 125.971C74.4221 130.611 80.3646 127.66 81.3199 121.331C81.4023 120.785 81.9118 120.409 82.4579 120.492C83.004 120.574 83.3799 121.084 83.2975 121.63C82.0869 129.65 70.7299 131.558 49.5418 127.942C28.6199 124.372 14.2758 115.89 6.599 102.473C6.32472 101.993 6.49098 101.382 6.97034 101.108Z" fill="#FFB61D"/>
<path fill-rule="evenodd" clip-rule="evenodd" d="M109.985 99.9715C109.314 99.7391 108.591 99.2227 108.126 98.6288L107.351 97.6734L110.088 94.9621C114.297 90.8305 117.525 86.5957 120.314 81.5604C121.244 79.882 123.593 74.2786 123.593 73.7363C123.593 73.5556 123.877 72.8326 124.213 72.0837C124.73 70.9992 125.117 70.586 126.227 69.9663C127.544 69.1917 129.042 68.9334 129.687 69.3724C130.927 70.1987 130.927 72.8067 129.687 77.2998C128.319 82.2318 126.485 85.7694 122.69 90.8564C122.096 91.631 120.985 93.1545 120.185 94.2132C118.042 97.0536 116.647 98.4222 114.762 99.4809C112.903 100.514 111.819 100.643 109.985 99.9715ZM128.525 97.6476L130.385 98.4739C130.77 98.6518 135.023 100.695 140.131 103.15C148.368 107.107 158.828 112.134 158.892 112.134C158.995 112.134 159.48 111.013 159.589 109.706C159.848 106.892 160.803 103.07 161.913 100.411C162.43 99.2227 162.843 97.7382 162.843 97.6091C162.843 97.5501 162.423 97.3808 161.736 97.1036C160.918 96.7736 159.721 96.2908 158.402 95.6593C151.894 92.5348 139.164 86.1567 137.589 85.2013C136.04 84.2976 135.73 84.2201 135.73 84.814C135.73 85.5887 134.155 89.1779 132.941 91.1146C132.295 92.1733 131.03 94.0841 130.126 95.3494L128.525 97.6476ZM158.453 107.486C159.194 107.915 157.911 108.544 157.601 108.648C155.777 108.803 153.628 108.46 151.869 107.434C150.948 106.782 143.703 102.756 138.896 100.086C136.699 98.8651 135.011 97.9276 134.671 97.725C133.587 97.0795 132.554 96.3823 132.373 96.1757C131.831 95.4785 132.347 95.1686 133.871 95.2978C134.786 95.3754 156.854 106.559 158.453 107.486ZM60.5392 172.516L60.5394 172.516L60.5417 172.515L60.5432 172.515L60.5446 172.514L60.5462 172.513L60.5485 172.512C61.026 172.311 61.4369 172.138 61.7496 172.012C63.351 171.366 68.2309 164.475 69.9868 156.703C71.2521 150.97 71.8976 142.81 71.1746 141.442C70.7387 140.649 73.3286 143.308 75.2572 145.288L75.2605 145.292L75.2633 145.294C75.8456 145.892 76.3672 146.428 76.7264 146.787C87.9848 157.968 104.743 166.954 122.147 171.163C130.824 173.28 136.995 174.029 145.284 174.029C159.202 174.029 170.176 171.292 180.144 165.275C180.617 164.99 181.061 164.727 181.484 164.477C184.958 162.42 187.028 161.194 192.693 154.818C199.048 147.665 204.7 131.061 206.585 125.329C207.412 122.747 209.426 112.476 209.426 109.913C209.426 106.879 208.367 105.446 206.921 103.974C204.365 101.469 200.905 100.565 198.038 101.65L196.696 102.166L196.282 100.798C195.689 98.7321 194.449 97.0795 192.538 95.84C189.698 93.955 189.285 93.8259 186.728 93.8259C184.74 93.8259 184.198 93.9292 182.932 94.5231L181.461 95.1945L181.151 94.2649C180.557 92.354 178.565 89.6903 177.019 88.9197C175.649 88.2363 173.276 88.1737 171.622 88.4807C168.007 89.1521 165.425 90.8305 164.366 93.1803C164.057 93.9034 163.669 94.4714 163.514 94.4714C163.385 94.4714 158.298 93.0508 152.23 90.3653C151.227 89.9201 150.284 89.502 149.397 89.1089L149.382 89.1021L149.343 89.0849L149.342 89.0844C138.445 84.2545 136.083 83.2076 136.298 81.8961C136.479 80.7858 136.427 80.166 136.117 79.2106C135.575 77.6096 134.955 77.1707 133.199 77.1707C131.805 77.1707 131.805 77.1707 131.96 76.4735C132.786 72.5227 132.76 70.2504 131.882 68.8043C131.288 67.8489 130.591 67.4616 128.99 67.2292C128.061 67.1001 127.622 67.1775 126.589 67.7456C125.892 68.1071 125.298 68.3654 125.246 68.3137C125.194 68.2621 125.375 66.8419 125.659 65.1634C127.777 52.743 126.141 42.0416 120.744 30.6799C120.692 30.5714 120.633 30.4433 120.564 30.2966L120.564 30.2955C118.923 26.7731 112.326 12.6096 93.459 5.46284C92.605 5.13935 91.797 4.82656 91.0203 4.52595C84.5935 2.03831 80.3211 0.384551 70.0126 0.401713C58.4585 0.420949 54.5452 2.05432 46.9277 5.5403C45.869 6.03092 44.9394 6.31496 44.8619 6.21167C44.7845 6.08256 44.2939 5.7727 43.8032 5.51448C43.3126 5.25626 42.2539 4.61071 41.4793 4.09427C39.2586 2.59659 37.89 1.97686 37.1928 2.13179C36.3923 2.33837 36.3923 3.00974 37.1928 3.3196C37.5285 3.44872 37.9158 3.88769 38.0707 4.32666C38.4064 5.25626 38.7938 5.35955 39.0262 4.58489C39.1294 4.30084 39.2844 4.09427 39.3618 4.14591C39.3912 4.1606 39.4895 4.20662 39.6395 4.27684C40.017 4.45352 40.7217 4.78341 41.4793 5.15297C42.538 5.66941 43.7 6.21167 44.0098 6.34079C44.5779 6.54736 44.3971 6.70229 41.9441 8.14833C32.3641 13.7775 24.5658 22.5312 20.2019 32.4985C19.5305 33.9962 18.9366 34.9258 18.3169 35.4422C16.7417 36.7592 13.6431 40.5034 12.9201 41.9752C12.5327 42.7757 11.7064 44.0152 11.0609 44.7382C10.4412 45.4612 9.76978 46.3908 9.53738 46.7781C9.3308 47.1913 9.12423 47.4753 9.04676 47.4237C8.99512 47.3462 9.07258 46.0809 9.25334 44.6091C9.64067 41.1747 9.64067 40.271 9.3308 40.1935C8.86601 40.0644 8.19463 41.8719 7.91059 44.1184C7.70401 45.487 7.65237 47.5528 7.78148 49.6702L7.93641 53.0271L6.10305 50.0575C5.47264 49.0646 4.85186 48.0717 4.41094 47.3665L4.41083 47.3664L4.41011 47.3652L4.4098 47.3647L4.40926 47.3638L4.409 47.3634L4.40872 47.363L4.40863 47.3628L4.40829 47.3623L4.407 47.3602C4.1275 46.9132 3.92084 46.5826 3.83071 46.4424C3.15933 45.4612 2.772 43.9893 3.05605 43.4987C3.21098 43.2147 3.18515 43.0856 2.92693 43.0856C2.38467 43.0856 1.32597 44.8156 0.628772 46.8039C0.293086 47.7335 -0.0426013 48.5082 -0.14589 48.5082C-0.53322 48.5082 -0.352466 39.2639 0.0606871 36.2944C0.912815 30.4328 3.15933 23.2026 4.16639 23.2026C4.37297 23.2026 4.55372 23.0993 4.55372 22.9444C4.55372 22.4796 3.88235 22.6603 3.34009 23.2542C2.12645 24.5712 0.525484 28.6252 -0.481576 32.9375C-1.17877 35.907 -1.61775 39.7287 -1.77268 43.886C-1.90179 47.4753 -1.85014 48.0692 -1.3337 50.0317C-0.739797 52.2266 -0.275 52.8721 0.525484 52.5623C0.809526 52.459 0.938637 52.0716 0.938637 51.3486C0.938637 50.7805 1.2485 49.0763 1.63583 47.5528L2.30721 44.8156L2.59125 45.9518C2.95276 47.2687 5.07017 51.3486 6.981 54.3182C8.29792 56.3323 8.32374 56.4614 8.76272 59.6117C8.99512 61.3934 9.71813 65.7271 11.3966 72.3936C12.8796 78.2838 21.2166 84.127 23.2983 85.5859C23.5726 85.7782 23.7383 85.8943 23.7653 85.9243C24.0236 86.2084 24.3851 86.3633 24.5916 86.2859C24.824 86.2084 24.9531 86.3117 24.9531 86.5957C24.9531 86.8539 25.1339 87.1896 25.3405 87.3446C25.5987 87.5253 25.7794 88.2225 25.8311 89.4361C25.9602 91.8634 27.7677 96.5114 29.1621 98.0349C30.0659 99.0161 31.9509 99.4293 34.0425 99.0678C35.4111 98.8612 35.7984 98.7063 35.6693 98.3964C35.5918 98.1898 36.0824 98.448 36.7538 98.9645C44.6037 104.955 52.5569 108.544 61.4913 110.094C64.9515 110.688 70.684 111.023 73.8085 110.791L73.8086 110.791H73.8088C75.8119 110.66 76.3626 110.624 76.4648 110.821C76.5035 110.895 76.4778 111.003 76.4423 111.152C76.2616 111.876 76.494 112.314 80.2898 118.744C83.311 123.831 83.5692 124.167 86.9261 127.601C94.0529 134.96 101.825 140.667 110.631 145.083C118.92 149.214 132.153 152.649 144.251 153.733C156.349 154.818 165.038 143.714 165.012 140.874C164.96 136.975 164.418 134.418 163.101 131.939C161.81 129.538 160.958 128.711 157.085 126.129C152.772 123.263 150.113 120.913 148.357 118.408C147.246 116.833 146.833 115.052 146.833 114.096C146.833 113.476 147.634 112.082 148.822 111.798C149.906 111.514 150.113 111.54 151.326 112.134C152.049 112.469 153.934 113.347 155.484 114.096C157.059 114.819 158.582 115.542 158.892 115.697C159.806 115.951 160.192 117.739 160.401 118.708C160.448 118.925 160.486 119.1 160.519 119.209C160.88 120.552 162.591 122.285 163.695 122.876C165.633 123.912 170.409 124.051 171.726 122.631C172.062 122.269 173.175 121.825 173.404 121.959C173.633 122.094 174.463 123.211 174.463 124.115C174.489 125.664 175.289 127.085 176.993 128.505C180.221 131.19 182.726 131.836 185.256 130.648C186.573 130.028 187.653 129.786 187.653 129.786C187.653 129.786 188.729 131.16 188.794 131.629C189.301 135.298 194.733 136.836 196.179 136.991C196.511 137.024 197.155 136.883 197.811 136.738C198.686 136.546 199.58 136.349 199.768 136.561C200.137 136.978 193.597 147.794 192.693 149.163C184.094 162.074 167.362 169.975 146.885 170.801C133.587 171.344 117.241 167.625 103.065 160.86C94.0013 156.496 85.9706 151.151 77.3719 143.662C75.8742 142.371 74.1441 140.899 73.5244 140.383C72.9047 139.892 71.4328 138.214 70.2967 136.665C68.3858 134.082 67.3013 133.153 67.3013 134.031C67.3013 134.418 68.5408 136.794 69.961 139.144C70.5291 140.073 70.8906 140.719 70.7615 140.615C70.6324 140.512 70.2192 142.371 69.8319 144.747C68.5666 152.364 66.475 159.879 64.3576 164.552C63.1956 167.083 60.9676 168.973 60.2962 169.489C57.8173 171.374 54.1062 172.222 48.9677 172.738C42.4605 173.384 32.8805 171.938 25.5729 169.2C23.6362 168.477 18.6526 166.386 18.3169 166.153C18.2967 166.133 18.1823 165.39 18.0227 164.354L18.0224 164.352C17.9775 164.06 17.9289 163.745 17.8779 163.416C16.9483 157.038 15.6572 132.482 15.6572 121.12C15.6572 116.42 15.6056 115.387 15.2957 115.387C14.6501 115.387 14.3919 116.007 14.1079 118.228C13.4623 123.289 13.5914 149.705 14.2886 155.257L14.4436 156.522L13.5656 156.031C12.2229 155.257 7.11011 150.066 5.32839 147.665C3.82001 145.612 2.92352 142.982 2.25279 141.015L2.25271 141.015C2.09675 140.558 1.95299 140.136 1.81659 139.766C-1.92761 129.385 -0.610686 117.737 4.55372 107.253C8.94347 98.3189 14.3403 93.3611 22.2418 90.9596C23.5329 90.5723 24.6691 90.1592 24.7982 90.0559C25.2888 89.5911 22.1385 89.8235 20.4085 90.3657C14.7793 92.0958 8.89183 96.8213 4.88941 102.864C-0.739796 111.333 -3.27036 123.831 -1.48864 134.496C-1.07548 137.026 0.60295 142.5 1.06775 142.888C1.10889 142.929 1.32123 143.374 1.64237 144.048L1.6425 144.048L1.6426 144.049L1.6427 144.049C2.53089 145.912 4.25078 149.52 5.48332 151.151C6.981 153.191 11.4999 157.632 13.3849 159.001L14.5727 159.853L14.7534 161.944C15.0891 165.947 15.2182 166.308 17.0258 167.651C21.5446 171.085 30.4532 174.287 38.5097 175.424C42.2539 175.94 50.3879 175.759 53.4865 175.088C55.4784 174.652 58.5703 173.347 60.5392 172.516ZM140.765 150.841C125.762 149.524 107.635 142.371 94.5177 131.319C88.9918 126.645 81.8133 117.557 78.9729 112.521C78.379 111.488 77.94 110.998 77.4235 110.869C76.8813 110.714 77.3461 110.559 79.5668 110.197C88.9402 108.596 98.0554 104.697 105.415 99.1454L106.499 98.3449L106.809 99.0938C107.506 100.772 110.192 102.476 112.18 102.476C112.981 102.476 115.666 101.263 117.293 100.152L118.403 99.4036L119.307 100.307C120.133 101.134 120.288 101.185 121.837 101.185C123.619 101.185 125.762 100.385 126.95 99.2487L127.596 98.6548L129.429 99.8684C130.41 100.566 133.148 102.089 135.497 103.303C139.009 105.11 142.728 107.202 146.265 109.371L146.833 109.732L146.291 110.455C145.723 111.23 144.665 112.702 144.665 114.949C144.665 117.479 147.296 122.026 152.333 125.148C156.291 127.601 163.101 132.427 162.843 139.479C162.812 140.331 161.862 142.449 160.596 144.36C159.77 145.573 157.472 147.381 155.38 148.44C151.817 150.221 145.542 151.254 140.765 150.841ZM3.08187 34.926C3.77906 35.0809 4.24386 35.3133 4.14057 35.4166C3.80488 35.7523 2.02316 35.5974 1.61001 35.1842C0.964458 34.5645 1.11939 34.1255 2.02316 33.9448C2.48796 33.8673 3.18515 33.48 3.57249 33.0926C3.95982 32.7053 4.2955 32.5245 4.2955 32.6536C4.2955 32.9893 3.0044 34.1772 2.35885 34.4354C1.9457 34.6161 2.07481 34.6936 3.08187 34.926ZM13.359 35.3391C14.1079 34.926 13.9529 34.6419 13.075 34.7711C12.1971 34.9002 12.1454 34.7969 12.7135 33.9189C12.9459 33.5832 13.075 33.0926 13.0234 32.8344C12.9459 32.4987 12.7651 32.6536 12.352 33.48C12.0421 34.0739 11.6031 34.5645 11.3966 34.5645C10.751 34.5645 10.6994 35.0809 11.3191 35.3133C12.1196 35.649 12.7393 35.649 13.359 35.3391ZM4.42461 21.2403C3.80488 21.3436 1.86823 22.1183 0.163975 22.9704C-1.5661 23.7967 -3.03796 24.4939 -3.14125 24.4681C-5.7751 24.184 -2.10836 19.7943 4.55372 15.3012C10.9318 10.9889 15.2441 8.71661 19.2465 7.55462C21.7512 6.8316 24.5658 6.72831 25.3663 7.32222C25.8053 7.65791 25.6503 7.68373 23.7395 7.70955C19.608 7.70955 14.8309 9.82696 7.05846 15.0172C3.03022 17.7027 -1.64357 21.5502 -1.64357 22.1699C-1.64357 22.299 -0.894729 22.0408 0.0348649 21.6276C2.02316 20.7239 4.0631 20.2591 4.96688 20.4656C5.92229 20.7239 5.71572 21.0595 4.42461 21.2403ZM14.4177 23.461C16.845 22.9704 16.9483 22.9446 16.9483 22.6863C16.9483 22.5572 16.0187 22.4281 14.8567 22.3765L12.7651 22.299L14.7018 20.1041C15.7605 18.8905 17 17.6769 17.4389 17.3928C18.3943 16.7731 18.446 16.3341 17.6713 16.0759L17.0774 15.8951L17.723 15.6627C18.0845 15.5336 18.7559 15.482 19.2206 15.5595C19.9178 15.6627 20.0728 15.6111 19.9953 15.2496C19.9178 14.8881 19.6338 14.8106 18.3685 14.8364C14.676 14.8881 13.1008 15.8693 15.9929 16.3341C16.7934 16.4632 17.4647 16.6698 17.4647 16.7989C17.4647 16.9022 17.3356 17.0055 17.1807 17.0055C16.6901 17.0055 12.5327 21.2145 12.0163 22.2474C11.2158 23.7709 11.6548 24.0033 14.4177 23.461ZM31.4603 13.442C30.7115 13.4937 30.5307 13.6228 30.5824 13.9843L30.5903 14.0369C30.6193 14.2279 30.636 14.3376 30.5932 14.371C30.5354 14.4159 30.3692 14.3217 29.9787 14.1002L29.911 14.0618C29.4204 13.8036 29.3687 13.6744 29.6528 13.4679C29.8335 13.3129 30.3241 13.0805 30.7115 13.0031L31.4345 12.8223L30.8922 12.2542C30.6082 11.9185 30.4532 11.6087 30.5307 11.5054C30.7373 11.2988 33.2678 11.5829 33.6294 11.8669C33.7843 11.996 34.0167 11.9702 34.1716 11.8153C34.5331 11.4537 35.0237 11.7378 35.0237 12.3059C35.0237 12.6157 34.9463 12.6416 34.7139 12.4092C34.5073 12.2026 34.3265 12.2026 34.0942 12.3833C33.8876 12.5641 33.7326 12.5641 33.6035 12.3575C33.5261 12.2284 33.0354 12.0993 32.519 12.0993C32.0426 12.0993 31.8173 12.0993 31.7713 12.1901C31.7301 12.2715 31.833 12.426 32.0284 12.719C32.4403 13.3626 32.4159 13.3646 31.4691 13.4413L31.4603 13.442ZM27.5353 6.57338C27.5353 6.23769 27.2255 5.64379 26.8382 5.25645L26.1151 4.53344L29.9884 4.68837C32.1317 4.79166 34.5589 5.02406 35.4111 5.25645C36.2632 5.46303 37.2444 5.61796 37.6059 5.61796C38.1482 5.61796 38.0449 5.51468 37.0379 4.97241C35.282 4.06864 33.0354 3.62967 28.7232 3.3198C23.5588 2.95829 20.9507 3.44891 21.4413 4.74001C21.5188 4.99823 21.932 5.12734 22.5517 5.12734C23.817 5.12734 25.8827 5.87618 26.5799 6.57338C27.3288 7.32222 27.5353 7.32222 27.5353 6.57338ZM14.9342 74.95C17.0258 77.6355 19.7887 80.6825 21.0798 81.7153C21.8545 82.3351 22.5259 82.8515 22.5775 82.8515C22.6033 82.8515 22.0353 81.6637 21.3122 80.2177C18.3943 74.4077 16.6901 68.6236 15.8896 61.9615C15.7089 60.4896 15.4248 59.2502 15.1149 58.7337C14.4952 57.7008 14.4952 56.3581 15.1408 55.0928C15.4765 54.4214 15.6572 53.5693 15.6572 52.6397V51.2195L14.4177 52.5106C13.2041 53.7759 12.0421 54.2923 12.0421 53.5177C12.0421 52.9496 13.9529 50.2124 14.96 49.3603C15.7605 48.6889 15.8638 48.4565 16.122 46.4424C16.3028 45.2288 16.7159 43.0856 17.0516 41.6653C17.4131 40.2451 17.6197 39.0315 17.568 38.9799C17.3873 38.7991 11.3191 45.7684 10.4928 47.9917C10.3114 48.4799 9.82142 49.3345 9.43409 49.8509L8.76272 50.713C8.76272 50.713 8.97127 51.92 9.20169 53.437C9.4345 54.9697 9.54373 56.0233 9.64102 56.9617C9.77117 58.217 9.87995 59.2662 10.2346 60.9802C10.6477 63.0976 11.0609 64.931 11.1642 65.0601C11.2416 65.2151 11.5773 66.4029 11.913 67.7198C12.636 70.6377 13.8497 73.5298 14.9342 74.95ZM119.72 99.3776L119.178 98.8354C119.178 98.8354 128.178 87.4006 129.791 83.1872C131.021 79.9718 131.746 79.06 132.723 79.06C133.269 79.06 133.716 79.1848 133.922 79.4947C134.284 80.0369 134.632 80.7083 134.167 83.0065C133.393 86.7248 132.205 89.1779 128.641 94.4714C127.815 95.6851 126.756 97.0278 126.292 97.4926C125.207 98.4997 122.767 99.5326 121.347 99.765C120.443 99.8941 120.185 99.8424 119.72 99.3776Z" fill="#00160A"/>
<path d="M191.222 124.638C194.434 115.885 193.948 114.02 193.391 113.838C193.391 113.838 192.164 114.535 191.622 116.007C190.615 118.77 187.168 126 185.877 127.291C184.353 128.815 184.353 128.815 182.804 128.815C181.254 128.815 176.786 126.482 176.178 124.182C175.204 120.502 179.395 107.718 179.499 106.995L178.801 106.505C178.337 106.943 172.291 125.277 164.341 120.5C163.431 119.953 161.501 117.376 161.346 116.007C160.485 112.03 164.433 98.1253 165.105 95.2691C165.705 92.7126 168.834 90.3399 172.682 90.3399C178.595 90.3399 177.801 95.5088 180.449 97.3302C181.623 98.1374 183.552 96.674 184.147 96.563C187.478 95.9433 188.754 96.6649 191.196 98.603C193.081 100.099 194.476 103.06 196.011 104.103C196.863 104.683 197.768 103.89 198.065 103.742C199.28 103.132 201.886 103.587 202.609 104.103C203.669 104.565 206.267 107.062 206.677 108.514C208.537 115.096 202.664 129.687 200.447 132.424C196.777 136.955 188.009 133.391 191.222 124.638Z" fill="white"/>
<path fill-rule="evenodd" clip-rule="evenodd" d="M42.7702 100.655C49.8455 105.122 57.1409 108.04 65.4556 108.84C72.0144 109.46 80.8577 108.608 87.21 106.542C92.5551 104.812 99.7853 100.019 104.614 95.9652C113.987 88.1153 119.901 75.8537 122.483 62.8394C122.844 61.006 123.396 56.3975 123.37 51.827C123.37 46.5077 121.029 31.9714 113.936 23.5899C99.3063 6.30298 75.2584 -1.48428 55.048 5.16943C47.7575 7.56964 39.9951 11.9183 34.1335 17.5992C26.7484 24.8035 21.2999 34.6159 19.1309 44.6349C16.8585 55.2219 19.8144 67.8747 24.953 78.2552C29.0587 86.5182 35.8241 96.239 42.7702 100.655ZM111.715 69.4499C106.861 84.0393 94.2077 94.9362 78.3014 98.2414C75.8741 98.7321 74.1956 98.9128 70.7871 98.9645C68.3857 99.0419 65.9842 99.0161 65.4936 98.9645C54.3643 97.6217 45.8947 93.516 38.0964 85.7177C34.6879 82.2834 33.2419 80.4242 31.1245 76.7575C27.7934 70.9475 26.0117 65.0085 25.4694 57.8558C23.6103 33.3506 41.1434 12.9254 65.8293 10.808C75.5126 9.98168 86.2545 12.9512 94.4143 18.7354C97.4355 20.8786 102.91 26.3012 104.614 28.8318C105.311 29.8388 112.077 39.7287 113.264 45.4095C114.788 52.7946 114.194 62.0389 111.715 69.4499Z" fill="white"/>
<path fill-rule="evenodd" clip-rule="evenodd" d="M123.38 51.827C123.38 69.1591 115.181 88.1076 104.6 96.2C99.5522 100.061 92.9553 104.736 87.2104 106.542C78.7913 109.189 65.4561 108.84 65.4561 108.84C65.4561 108.84 79.0608 107.022 84.1024 104.993C98.5597 99.1743 106.452 90.2431 111.325 81.6736C120.945 64.758 123.38 51.406 123.38 51.827Z" fill="#E7EAEE"/>
<path fill-rule="evenodd" clip-rule="evenodd" d="M65.7519 95.8658C58.8574 94.9879 52.0145 92.5348 46.4886 88.8939C43.2092 86.7506 38.2514 81.7154 35.8499 78.1261C32.4156 72.9617 30.1433 67.4358 29.0329 61.4967C28.2324 57.1844 28.2583 50.5481 29.0587 46.7006C29.885 42.7757 30.9438 39.7803 32.8288 35.9845C35.0236 31.5948 37.3476 28.367 40.8336 24.881C46.7727 18.9419 53.6672 15.1719 61.8786 13.3644C64.5382 12.7963 74.1699 12.3315 74.5056 12.7705C74.583 12.8996 75.0995 13.2353 75.6417 13.5193C76.184 13.8292 77.63 14.9137 78.8178 15.9724C80.5996 17.5217 81.4 18.503 82.9494 20.9302C84.0081 22.5829 84.8602 24.0805 84.8602 24.2096C84.8602 24.4937 85.6865 25.0101 86.1513 25.0101C86.7968 25.0101 87.2358 23.0735 87.3649 19.665C87.4424 17.78 87.5973 16.2306 87.7006 16.2306C88.0621 16.2306 92.0387 18.4255 93.8979 19.665C97.5388 22.0922 101.18 25.5007 103.865 29.0642C105.079 30.6652 105.26 31.0783 105.26 32.0595C105.26 32.9633 105.518 33.6605 106.318 35.0549C108.332 38.5667 109.908 42.9823 110.863 47.8626C111.483 51.142 111.483 57.3393 110.837 60.7737C109.081 70.2245 103.865 79.6238 97.074 85.5887C91.3157 90.624 85.1959 93.7226 77.9657 95.2461C75.4868 95.7884 68.05 96.1499 65.7519 95.8658ZM47.2891 78.2036C47.5215 77.9453 47.6764 77.558 47.599 77.3772C47.5757 77.323 47.2525 77.171 46.7793 76.9486L46.7792 76.9485L46.7791 76.9485L46.779 76.9484L46.7789 76.9484C45.6756 76.4297 43.7578 75.528 42.9266 74.5885C39.6214 70.8184 38.4078 68.0038 37.6589 62.1939C36.9359 56.5388 37.5433 52.7158 38.8468 46.5715C39.4826 43.5742 41.1726 41.0984 42.224 39.5581C42.9389 38.5108 43.3586 37.8959 42.951 37.8437C41.9439 37.6888 41.789 37.7662 40.7303 38.7733C38.458 40.9423 37.4251 42.6724 36.3406 46.0035C34.6621 51.2195 34.3378 65.3158 37.6589 71.6706C40.9801 78.0253 46.6952 78.8749 47.2891 78.2036ZM84.0081 56.513C83.5695 60.5244 81.7099 66.3254 79.5409 68.856C78.5338 70.0438 74.8372 72.0837 71.7168 71.6706C68.7028 71.2715 66.3458 69.863 64.3317 66.8419C62.6016 64.2338 61.708 61.0681 61.1039 57.0811C60.0607 50.1963 64.6157 42.1818 66.5782 40.1935C68.5665 38.1536 69.9867 37.4305 71.7942 37.4047C73.5501 37.4047 74.6863 37.792 76.468 39.0573C79.7216 41.3297 84.8602 48.7182 84.0081 56.513ZM49.1999 35.1582C49.7164 34.5643 49.7938 34.2802 49.6389 33.1699C49.5356 32.137 49.3291 31.7239 48.7868 31.2849C47.8314 30.5102 46.6436 30.5102 45.7656 31.3365C45.1459 31.9304 45.0684 32.137 45.1459 33.5572C45.2233 35.0807 45.275 35.184 46.1271 35.6488C47.2633 36.2685 48.3736 36.0878 49.1999 35.1582ZM65.3129 19.226C60.6649 22.557 58.6508 23.9256 56.5592 25.2167C54.9066 26.2496 54.3902 26.2754 54.3902 25.3458C54.3902 24.8552 54.7517 24.3129 55.6813 23.4608L56.9724 22.273L54.4676 21.9373C51.653 21.5758 48.9159 20.8011 48.322 20.2072C47.3408 19.2002 48.1929 18.9678 50.9817 19.4842C52.2211 19.6908 54.6226 19.949 56.3268 20.0006L59.4255 20.1298L61.672 18.503C66.604 14.9395 71.7168 12.9254 74.1699 13.5451C75.6934 13.9066 75.5126 14.3198 73.7825 14.5264C71.7942 14.7588 70.5806 15.4301 65.3129 19.226Z" fill="white"/>
<path d="M71.9492 68.1329C71.9492 68.0038 72.1042 67.8747 72.3107 67.8747C72.5173 67.8747 72.7755 68.0038 72.853 68.1329C72.9305 68.2879 72.7755 68.3912 72.4915 68.3912C72.1816 68.3912 71.9492 68.2879 71.9492 68.1329Z" fill="white"/>
<path d="M73.499 67.9005C73.499 67.6165 74.1446 67.3583 74.8676 67.3583C75.4357 67.3841 75.4357 67.3841 74.9451 67.7456C74.377 68.1846 73.499 68.262 73.499 67.9005Z" fill="white"/>
<path d="M69.4958 67.2292C69.4184 67.0226 69.3151 66.6611 69.2376 66.4545C69.1601 66.1963 69.2893 66.0672 69.6249 66.0672C69.909 66.0672 70.1414 66.2221 70.1414 66.4287C70.1414 66.6353 70.2188 66.971 70.2963 67.2034C70.3996 67.4874 70.3221 67.6165 70.0381 67.6165C69.8057 67.6165 69.5475 67.4358 69.4958 67.2292Z" fill="white"/>
<path d="M70.8644 66.5836C70.7353 65.809 71.0193 65.5508 71.9489 65.5508C72.233 65.5508 72.4654 65.809 72.5686 66.2479C72.7752 66.9968 72.4395 67.3583 71.5358 67.3583C71.1226 67.3583 70.9419 67.1775 70.8644 66.5836Z" fill="white"/>
<path d="M68.2309 66.7127C67.7403 66.3254 67.7403 66.3254 68.2825 66.3254C68.6182 66.3254 68.8506 66.4803 68.8506 66.7127C68.8506 67.1775 68.8506 67.1775 68.2309 66.7127Z" fill="white"/>
<path d="M73.4212 66.6869C73.0855 66.3512 73.2405 65.3442 73.6536 65.1892C74.4024 64.9052 74.7381 65.0343 74.8931 65.7057C74.9963 66.093 75.048 66.4287 74.9963 66.4545C74.7898 66.6869 73.5761 66.8418 73.4212 66.6869Z" fill="white"/>
<path d="M75.7194 66.1447C75.6419 66.0672 75.5645 65.7315 75.5645 65.4216C75.5645 64.9827 75.771 64.8019 76.3908 64.6728C76.933 64.5695 77.2687 64.6212 77.4236 64.8277C77.6819 65.2409 77.6819 65.7573 77.4495 65.8864C76.9847 66.1447 75.9001 66.2996 75.7194 66.1447Z" fill="white"/>
<path d="M67.043 65.3442C67.043 65.0343 67.2754 64.7761 67.6111 64.6986C68.2824 64.5179 68.2566 64.492 68.3857 65.1634C68.4374 65.5507 68.3082 65.7057 67.766 65.7573C67.1979 65.8348 67.043 65.7315 67.043 65.3442Z" fill="white"/>
<path d="M69.0051 65.37C68.6436 64.9827 68.876 64.2596 69.3666 64.2596C69.7023 64.2596 69.883 64.4404 69.883 64.7503C69.883 65.2409 69.2891 65.654 69.0051 65.37Z" fill="white"/>
<path d="M70.5545 64.5953C70.3479 64.1047 70.7869 63.7432 71.639 63.7432C72.0263 63.7432 72.2071 63.8981 72.2071 64.2338C72.2071 64.5179 71.9747 64.7761 71.639 64.8794C70.7869 65.0859 70.7352 65.0859 70.5545 64.5953Z" fill="white"/>
<path d="M78.0179 64.5179C78.0954 64.3888 78.2245 64.2596 78.302 64.2596C78.3794 64.2596 78.3536 64.3888 78.2761 64.5179C78.1987 64.6728 78.0696 64.7761 77.9921 64.7761C77.9146 64.7761 77.9404 64.6728 78.0179 64.5179Z" fill="white"/>
<path d="M72.8793 64.0789C72.6727 63.5625 72.9309 63.3042 73.7572 63.1751C74.222 63.1235 74.4286 63.2268 74.4803 63.5883C74.661 64.4404 73.1892 64.9052 72.8793 64.0789Z" fill="white"/>
<path d="M66.682 63.6399C66.4496 62.7878 66.5012 62.7103 67.1726 62.7103C67.5341 62.7103 67.8182 62.8136 67.8182 62.9427C67.8182 63.0718 67.8956 63.3559 67.9731 63.5625C68.0506 63.8207 67.8956 63.9756 67.4566 64.0531C66.966 64.1564 66.7853 64.0531 66.682 63.6399Z" fill="white"/>
<path d="M75.3057 63.3559C75.3057 62.8911 75.4864 62.6845 75.977 62.5554C76.7001 62.3746 77.1132 62.7361 77.1132 63.5624C77.1132 63.8981 76.9066 64.0014 76.2094 64.0014C75.409 64.0014 75.3057 63.9239 75.3057 63.3559Z" fill="white"/>
<path d="M65.9065 63.3559C65.829 63.1493 65.8807 62.9685 66.0098 62.9685C66.1647 62.9685 66.268 63.1493 66.268 63.3559C66.268 63.5624 66.2164 63.7432 66.1647 63.7432C66.1131 63.7432 66.0098 63.5624 65.9065 63.3559Z" fill="white"/>
<path d="M68.5152 63.5624C68.1536 63.2268 68.3602 62.5037 68.825 62.3746C69.1091 62.2972 69.3931 62.323 69.4706 62.4004C69.7804 62.6845 69.5997 63.4333 69.2124 63.5883C68.7217 63.769 68.7217 63.769 68.5152 63.5624Z" fill="white"/>
<path d="M77.7334 63.3817C77.4494 62.6329 77.7592 62.0648 78.4822 61.9873C79.0245 61.9099 79.1794 62.0131 79.1794 62.4263C79.1794 63.2784 78.8954 63.7432 78.379 63.7432C78.0949 63.7432 77.8109 63.5883 77.7334 63.3817Z" fill="white"/>
<path d="M70.3222 63.046C70.0123 62.762 70.1156 62.2455 70.5546 62.0906C71.0452 61.9098 72.0781 62.4263 71.794 62.7103C71.4325 63.0202 70.5029 63.2526 70.3222 63.046Z" fill="white"/>
<path d="M72.5693 62.4005C72.3369 62.0389 73.1632 61.4192 73.8346 61.4192C74.1445 61.4192 74.2736 61.5742 74.2219 61.8582C74.1187 62.3746 72.8017 62.7878 72.5693 62.4005Z" fill="white"/>
<path d="M65.4941 62.2197C65.4941 62.0906 65.4166 61.8066 65.3392 61.5742C65.2617 61.3418 65.2875 61.161 65.4425 61.161C65.7782 61.161 66.0364 62.1422 65.7265 62.3488C65.5974 62.4263 65.4941 62.3746 65.4941 62.2197Z" fill="white"/>
<path d="M66.191 61.6258C66.036 61.0577 66.3459 60.6446 66.9398 60.6446C67.2755 60.6446 67.6112 61.6516 67.4046 61.9873C67.1206 62.4263 66.3201 62.1681 66.191 61.6258Z" fill="white"/>
<path d="M67.9981 61.7549C67.6107 61.3676 67.8431 60.438 68.3596 60.3089C68.7469 60.2056 68.9535 60.3347 69.1601 60.7995C69.315 61.1352 69.3925 61.4709 69.3408 61.5225C69.0826 61.7549 68.153 61.9357 67.9981 61.7549Z" fill="white"/>
<path d="M74.9701 61.7549C74.6345 61.4192 74.7894 61.2126 75.5641 60.9286C76.2096 60.722 76.3904 60.7478 76.5195 61.0577C76.7519 61.6774 75.4608 62.2713 74.9701 61.7549Z" fill="white"/>
<path d="M77.2429 61.161C76.9847 60.7479 77.3462 60.3864 78.0176 60.3864C78.8181 60.3864 79.0505 61.0577 78.3274 61.2643C77.5528 61.4709 77.4237 61.4451 77.2429 61.161Z" fill="white"/>
<path d="M79.4375 60.5413C79.4375 60.1539 79.9023 59.7408 80.1089 59.9473C80.2896 60.1281 79.9281 60.9028 79.6699 60.9028C79.5408 60.9028 79.4375 60.7478 79.4375 60.5413Z" fill="white"/>
<path d="M65.158 60.2056C65.0547 60.1281 64.9772 59.7924 65.0031 59.5084C65.0031 59.0178 65.0289 59.0178 65.2613 59.5858C65.5195 60.2056 65.4678 60.5154 65.158 60.2056Z" fill="white"/>
<path d="M65.6492 59.8182C65.4168 58.9145 65.4426 58.837 66.1139 58.837C66.8628 58.837 67.3276 59.7924 66.7595 60.1539C66.1656 60.5154 65.8299 60.4122 65.6492 59.8182Z" fill="white"/>
<path d="M74.5312 60.3347C74.5312 60.2572 74.6604 59.8441 74.8153 59.3793C75.1768 58.3464 75.9773 58.2947 76.158 59.3018C76.2355 59.6891 76.2613 60.0248 76.2355 60.0506C76.1064 60.2056 74.5312 60.438 74.5312 60.3347Z" fill="white"/>
<path d="M67.4825 59.6891C67.3792 59.6117 67.3018 59.3018 67.3018 59.0178C67.3018 58.6046 67.3792 58.5788 67.6891 58.837C67.8957 59.0178 68.0764 59.3276 68.0764 59.5084C68.0764 59.8957 67.7666 59.999 67.4825 59.6891Z" fill="white"/>
<path d="M76.778 59.1727C76.6231 58.3722 76.9588 58.0107 77.7592 58.114C78.1466 58.1656 78.2757 58.398 78.2757 58.9661C78.2757 59.6117 78.1724 59.7666 77.6043 59.8182C77.0362 59.8957 76.9071 59.7666 76.778 59.1727Z" fill="white"/>
<path d="M79.3087 59.276C78.973 58.2431 79.0763 57.9332 79.7735 57.8558C80.3932 57.7783 80.4707 57.8558 80.4707 58.5272C80.4707 59.0952 80.3157 59.3276 79.9284 59.4309C79.6444 59.5084 79.3603 59.4309 79.3087 59.276Z" fill="white"/>
<path d="M64.7705 57.8041C64.7705 57.3135 64.8222 57.1069 64.8996 57.3651C64.9513 57.5975 64.9513 58.0107 64.8996 58.2689C64.8222 58.5013 64.7705 58.2947 64.7705 57.8041Z" fill="white"/>
<path d="M65.4163 58.1398C65.0806 57.83 65.2356 56.8229 65.6487 56.668C66.2426 56.4356 66.5267 56.7196 66.5267 57.5717C66.5267 58.114 66.3976 58.3206 66.0619 58.3206C65.8037 58.3206 65.4938 58.2431 65.4163 58.1398Z" fill="white"/>
<path d="M66.9654 57.4426C66.8621 57.0553 66.8104 56.6421 66.9137 56.5647C67.1719 56.3065 67.3269 56.7196 67.2494 57.4684L67.1719 58.1915L66.9654 57.4426Z" fill="white"/>
<path d="M75.3057 57.2619C75.3057 56.9778 75.4348 56.8229 75.5639 56.9004C75.7188 56.9778 75.8221 57.2361 75.8221 57.4426C75.8221 57.6492 75.7188 57.8041 75.5639 57.8041C75.4348 57.8041 75.3057 57.5717 75.3057 57.2619Z" fill="white"/>
<path d="M76.4678 57.5975C76.1063 57.2102 76.3903 56.513 76.9842 56.3581C77.733 56.1773 77.7589 56.1773 77.9913 56.9262C78.1462 57.391 78.0429 57.4943 77.3715 57.5975C76.9584 57.675 76.5452 57.6492 76.4678 57.5975Z" fill="white"/>
<path d="M78.8441 57.1069C78.5601 56.8487 78.6375 55.9966 78.9216 55.9966C79.0765 55.9966 79.1798 55.8933 79.1798 55.7384C79.1798 55.6092 79.0249 55.4801 78.8183 55.4801C78.3793 55.4801 78.0178 54.2149 78.3793 53.8533C78.8441 53.3885 79.3605 53.8792 79.6704 55.1444C79.8512 55.8158 80.0319 56.5905 80.1094 56.8487C80.2127 57.1844 80.1094 57.2877 79.6188 57.2877C79.2831 57.2877 78.9216 57.2102 78.8441 57.1069Z" fill="white"/>
<path d="M80.2385 55.7384C80.0578 54.9637 79.593 53.4144 79.2573 52.2782C78.7409 50.6256 78.6892 50.2124 78.9733 50.0317C79.154 49.9026 79.3864 49.7993 79.4639 49.7993C79.7479 49.7993 80.7808 55.0928 80.6775 56.1257L80.6001 57.1586L80.2385 55.7384Z" fill="white"/>
<path d="M64.5127 55.6093C64.5127 55.1961 64.5643 55.0412 64.6418 55.2994C64.6934 55.5318 64.6934 55.8933 64.6418 56.0741C64.5643 56.229 64.5127 56.0482 64.5127 55.6093Z" fill="white"/>
<path d="M65.0286 55.5576C65.1319 54.6538 65.8807 54.4473 66.0873 55.2736C66.268 55.9449 66.3197 55.8675 65.545 56.1257C65.0027 56.2806 64.9511 56.229 65.0286 55.5576Z" fill="white"/>
<path d="M75.9257 55.3252C75.7191 54.5764 76.1581 54.1374 76.9844 54.2407C77.6041 54.3182 77.8365 55.4285 77.3201 55.7642C76.6745 56.1774 76.0806 55.9966 75.9257 55.3252Z" fill="white"/>
<path d="M66.5264 55.1186C66.5264 54.6797 66.6555 54.4473 66.9395 54.4473C67.1977 54.4473 67.301 54.628 67.2494 55.0154C67.1203 55.8417 66.5264 55.9191 66.5264 55.1186Z" fill="white"/>
<path d="M64.2287 54.0341C64.2287 53.7501 64.3062 53.6726 64.3836 53.8792C64.4611 54.0599 64.4353 54.2923 64.3578 54.3698C64.2803 54.4731 64.2029 54.3182 64.2287 54.0341Z" fill="white"/>
<path d="M64.7188 53.9567C64.7188 53.5693 64.8737 53.4144 65.261 53.4144C65.6225 53.4144 65.7516 53.5435 65.7 53.8534C65.5709 54.5247 64.7188 54.6022 64.7188 53.9567Z" fill="white"/>
<path d="M66.1396 53.7242C65.9588 53.2594 65.9588 53.2594 66.7335 53.0529C67.1983 52.8979 67.3016 52.9754 67.3016 53.3627C67.3016 53.9825 66.372 54.2923 66.1396 53.7242Z" fill="white"/>
<path d="M75.4866 53.3627C75.3059 52.7172 75.6416 52.3815 76.5453 52.3815C76.9843 52.3815 77.1134 52.5364 77.1134 53.0271C77.1134 53.4144 76.9585 53.6726 76.7519 53.6726C76.5453 53.6726 76.2096 53.7501 76.0031 53.8275C75.7707 53.905 75.5899 53.7501 75.4866 53.3627Z" fill="white"/>
<path d="M77.7339 52.7688C77.5273 52.2524 77.8372 51.8651 78.4311 51.8651C78.7926 51.8651 78.9217 52.0458 78.9217 52.5106C78.9217 52.9754 78.7926 53.1562 78.4053 53.1562C78.1212 53.1562 77.8114 52.9754 77.7339 52.7688Z" fill="white"/>
<path d="M64.4609 52.4073C64.4609 51.865 65.0548 51.2453 65.3131 51.5294C65.4164 51.6068 65.4938 51.9683 65.4938 52.304C65.4938 52.7172 65.3389 52.8979 64.9774 52.8979C64.6417 52.8979 64.4609 52.7172 64.4609 52.4073Z" fill="white"/>
<path d="M65.881 52.0974C65.6744 51.4519 65.9068 51.1679 66.7847 51.0387C67.5852 50.9355 67.8434 51.7876 67.1462 52.304C66.4749 52.7946 66.0617 52.7172 65.881 52.0974Z" fill="white"/>
<path d="M75.2284 51.9425C75.0476 51.7876 74.9701 50.8322 75.1251 50.8322C75.1509 50.8322 75.5382 50.7289 76.003 50.5998C76.7777 50.3674 76.8293 50.3932 76.8035 51.0904C76.7777 51.6069 76.6227 51.8651 76.2354 51.9684C75.5382 52.1491 75.4349 52.1491 75.2284 51.9425Z" fill="white"/>
<path d="M74.2734 51.3486C74.2734 51.1679 74.3509 51.0904 74.4542 51.1679C74.5317 51.2711 74.5317 51.4261 74.4542 51.5294C74.3509 51.6068 74.2734 51.5294 74.2734 51.3486Z" fill="white"/>
<path d="M77.1653 50.9355C77.2428 50.4965 78.0433 49.8509 78.224 50.0575C78.3015 50.135 78.4306 50.4448 78.508 50.7805C78.6888 51.297 78.6113 51.3486 77.8883 51.3486C77.2686 51.3486 77.0878 51.2453 77.1653 50.9355Z" fill="white"/>
<path d="M64.7188 50.9096C64.7188 50.7805 64.8479 50.5223 64.977 50.3157C65.1835 50.0059 65.2352 50.0317 65.2352 50.5223C65.2352 50.8322 65.1319 51.0904 64.977 51.0904C64.8479 51.0904 64.7188 51.0129 64.7188 50.9096Z" fill="white"/>
<path d="M65.4941 50.3416C65.4941 49.6185 66.0364 49.3861 66.4496 49.9284C66.7078 50.3157 66.7078 50.4448 66.4496 50.6256C65.9073 50.9613 65.4941 50.858 65.4941 50.3416Z" fill="white"/>
<path d="M73.3441 50.0059C72.8793 49.4894 72.8793 49.4636 73.3183 49.6185C73.5765 49.7218 73.9122 49.7993 74.0413 49.7993C74.1704 49.7993 74.2737 49.9801 74.2737 50.1866C74.2737 50.7289 73.9122 50.6772 73.3441 50.0059Z" fill="white"/>
<path d="M67.7917 49.9801C66.6813 49.1279 66.5264 47.2171 67.5593 47.2171C68.2565 47.2171 68.902 48.3016 68.7987 49.3087C68.7213 50.2383 68.4114 50.4449 67.7917 49.9801Z" fill="white"/>
<path d="M74.8668 50.135C74.9701 50.0575 75.125 50.0575 75.2283 50.135C75.3058 50.2383 75.2283 50.3157 75.0476 50.3157C74.8668 50.3157 74.7894 50.2383 74.8668 50.135Z" fill="white"/>
<path d="M78.7663 49.1279C78.8438 48.8955 78.9213 48.6631 78.9213 48.6115C78.9213 48.5598 79.0504 48.5082 79.1795 48.5082C79.3344 48.5082 79.4377 48.7406 79.4377 49.0246C79.4377 49.3345 79.257 49.5411 79.0246 49.5411C78.7405 49.5411 78.663 49.412 78.7663 49.1279Z" fill="white"/>
<path d="M65.2354 49.0505C65.2354 48.4565 65.7776 47.4753 66.0875 47.4753C66.6297 47.4753 66.2424 49.1279 65.6743 49.2312C65.4419 49.2829 65.2354 49.2054 65.2354 49.0505Z" fill="white"/>
<path d="M71.0452 48.7664L70.2705 48.5857L70.9677 48.4049C71.6907 48.1983 72.2072 48.3533 72.2072 48.7922C72.2072 49.0505 72.1813 49.0505 71.0452 48.7664Z" fill="white"/>
<path d="M70.1416 47.5269C70.1416 46.4682 70.7355 46.3133 71.2778 47.2429C71.6393 47.8626 71.6651 47.9917 71.3294 47.9917C71.1228 47.9917 70.7872 48.0692 70.5548 48.1467C70.2449 48.2758 70.1416 48.1208 70.1416 47.5269Z" fill="white"/>
<path d="M74.6345 47.8884C73.4725 47.372 72.7236 46.0034 72.7236 44.3766C72.7236 43.2147 72.8269 42.9306 73.5241 42.2851C73.9631 41.8719 74.4021 41.5362 74.5312 41.5362C75.0993 41.5362 77.1908 43.5245 77.888 44.764L78.6885 46.1842L77.8364 47.088C76.8552 48.1208 75.7706 48.4049 74.6345 47.8884Z" fill="white"/>
<path d="M69.2376 47.2171C69.1601 47.088 69.2117 46.9589 69.3409 46.9589C69.4958 46.9589 69.6249 47.088 69.6249 47.2171C69.6249 47.372 69.5733 47.4753 69.5216 47.4753C69.4441 47.4753 69.315 47.372 69.2376 47.2171Z" fill="white"/>
<path d="M65.8556 46.8039C65.933 46.5715 66.0105 46.3391 66.0105 46.2875C66.0105 46.2358 66.2429 46.1842 66.527 46.1842C67.1725 46.1842 67.1983 46.5974 66.5528 46.9589C65.8556 47.3204 65.6748 47.2946 65.8556 46.8039Z" fill="white"/>
<path d="M67.8947 46.4941C67.3008 46.4166 67.1201 46.0809 67.5074 45.8485C67.6107 45.7711 68.0755 45.6419 68.5403 45.5387C69.2375 45.3837 69.3666 45.4354 69.3666 45.8743C69.3666 46.4166 68.8243 46.649 67.8947 46.4941Z" fill="white"/>
<path d="M69.8838 45.6161C69.8838 45.3063 69.9096 45.1255 69.9613 45.1772C69.9871 45.2288 70.1937 45.487 70.3744 45.7452C70.6843 46.1067 70.6585 46.1842 70.2969 46.1842C70.0387 46.1842 69.8838 45.9776 69.8838 45.6161Z" fill="white"/>
<path d="M66.2686 45.4354C66.2686 45.2804 66.3977 45.0997 66.5268 45.0222C66.6817 44.9447 66.785 45.048 66.785 45.2546C66.785 45.487 66.6817 45.6678 66.5268 45.6678C66.3977 45.6678 66.2686 45.5645 66.2686 45.4354Z" fill="white"/>
<path d="M67.2242 45.048C67.0176 44.5316 68.851 43.9635 69.1608 44.4541C69.3932 44.8673 69.1608 45.048 68.1796 45.2546C67.5857 45.3837 67.3275 45.3321 67.2242 45.048Z" fill="white"/>
<path d="M69.6515 44.2217C69.6515 43.9377 69.729 43.8602 69.8065 44.0668C69.8839 44.2475 69.8581 44.4799 69.7807 44.5574C69.7032 44.6607 69.6257 44.5058 69.6515 44.2217Z" fill="white"/>
<path d="M67.4561 43.8086C67.7659 43.2405 68.6697 42.3109 68.9021 42.3109C69.1603 42.3109 69.1861 43.5245 68.9279 43.6795C68.7988 43.7311 68.3856 43.8602 67.9983 43.9635C67.4302 44.0926 67.3011 44.0668 67.4561 43.8086Z" fill="white"/>
<path d="M69.5224 43.2147C69.2383 42.44 69.3674 42.1043 69.9872 42.001C70.6327 41.8719 70.6327 41.8719 70.2196 42.6724C69.7031 43.7053 69.7289 43.7053 69.5224 43.2147Z" fill="white"/>
<path d="M69.3672 41.6653C69.3672 41.6137 69.8836 41.2522 70.5292 40.8907C71.3038 40.4259 71.8461 40.271 72.2334 40.3742C72.6982 40.5292 72.5691 40.6325 71.433 41.1747C70.1677 41.7428 69.3672 41.9494 69.3672 41.6653Z" fill="white"/>
<path d="M83.6981 18.787C83.0009 17.7799 81.5291 16.1532 80.4704 15.1719C79.4117 14.1907 78.7145 13.3902 78.921 13.3902C79.4891 13.3902 83.8272 14.578 84.9117 15.0428C85.8155 15.4301 85.8413 15.4818 85.6089 16.2823C85.4798 16.7471 85.3765 17.9091 85.3765 18.8645C85.3765 19.8457 85.2991 20.6204 85.1958 20.6204C85.0667 20.6204 84.4211 19.7941 83.6981 18.787Z" fill="white"/>
<path d="M31.1505 97.002C30.0918 96.4597 29.8594 96.1499 28.5167 93.4902C26.58 89.7202 26.5284 88.8422 28.3618 90.9855C29.0848 91.8376 30.7632 93.5935 32.0801 94.8846C34.3267 97.0536 34.4299 97.2086 33.6811 97.1053C33.1388 97.0278 32.9323 97.0795 33.0614 97.286C33.3712 97.7508 32.39 97.6217 31.1505 97.002Z" fill="white"/>
<path fill-rule="evenodd" clip-rule="evenodd" d="M74.4255 144.048C74.2112 143.539 74.4501 142.952 74.9591 142.738L75.5154 142.502C80.9244 140.187 84.0291 138.797 86.1386 136.59C88.2481 134.382 88.5006 131.14 88.8969 129.167C89.0057 128.625 90.2317 129.576 90.7732 129.685C91.3147 129.794 91.6654 130.321 91.5567 130.862C91.0802 133.234 89.7969 135.496 87.7311 137.643C85.6722 139.782 81.686 142.076 75.7352 144.581C75.2262 144.795 74.6398 144.557 74.4255 144.048Z" fill="#00160A"/>
<path fill-rule="evenodd" clip-rule="evenodd" d="M98.8853 41.0175C99.3599 40.735 99.9736 40.8907 100.256 41.3653C103.085 46.117 104.6 51.5487 104.6 57.2C104.6 74.3208 90.7208 88.2 73.6 88.2C69.0506 88.2 64.638 87.2187 60.5974 85.3493C60.0962 85.1174 58.2028 83.2708 60.1098 84.0218C62.0168 84.7728 69.3952 86.4585 73.6531 86.4585C89.6694 86.4585 101 73.2163 101 57.2C101 51.9114 98.8853 47.2171 98.5376 42.3883C98.4972 41.8286 98.4108 41.3 98.8853 41.0175Z" fill="#00160A"/>
<path fill-rule="evenodd" clip-rule="evenodd" d="M-0.152134 116.702C0.201332 116.278 0.831883 115.42 1.25624 115.774C2.99711 117.224 4.85482 118.904 6.84199 119.228C8.90984 119.566 11.363 119.566 14.1983 119.222C14.7466 119.156 15.2449 119.547 15.3112 120.095C15.3776 120.643 14.987 121.141 14.4387 121.208C11.4277 121.572 8.7892 121.572 6.51989 121.202C4.1699 120.819 1.98447 119.783 -0.0237698 118.111C-0.448129 117.757 -0.505599 117.127 -0.152134 116.702Z" fill="#00160A"/>
<path d="M21.0798 81.7154C19.7887 80.6825 17.0258 77.6355 14.9342 74.95C13.8496 73.5298 12.636 70.6377 11.913 67.7198C11.5773 66.4029 11.2416 65.2151 11.1641 65.0601C11.0609 64.931 10.6477 63.0977 10.2346 60.9802C9.61482 57.9849 9.7459 57.0199 9.20167 53.437C8.97124 51.92 8.7627 50.713 8.7627 50.713L9.43407 49.8509C9.8214 49.3345 10.3114 48.4799 10.4928 47.9918C11.3191 45.7684 17.3873 38.7991 17.568 38.9799C17.6197 39.0315 17.4131 40.2451 17.0516 41.6654C16.7159 43.0856 16.3027 45.2288 16.122 46.4424C15.8638 48.4566 15.7605 48.689 14.96 49.3603C13.9529 50.2125 12.0421 52.9496 12.0421 53.5177C12.0421 54.2923 13.2041 53.7759 14.4177 52.5106L15.6572 51.2195V52.6397C15.6572 53.5693 15.4764 54.4214 15.1407 55.0928C14.4952 56.3581 14.4952 57.7008 15.1149 58.7337C15.4248 59.2502 15.7088 60.4896 15.8896 61.9615C16.6901 68.6236 18.3943 74.4077 21.3122 80.2177C22.0352 81.6637 22.6033 82.8515 22.5775 82.8515C22.5258 82.8515 21.8545 82.3351 21.0798 81.7154Z" fill="white"/>
<path fill-rule="evenodd" clip-rule="evenodd" d="M128.525 97.6476L130.385 98.4739C130.77 98.6518 135.023 100.695 140.131 103.15C148.368 107.107 158.828 112.134 158.892 112.134C158.995 112.134 159.48 111.013 159.589 109.706C159.848 106.892 160.803 103.07 161.913 100.411C162.43 99.2227 162.843 97.7382 162.843 97.6091C162.843 97.5501 162.423 97.3808 161.736 97.1036C160.918 96.7736 159.721 96.2908 158.402 95.6593C151.894 92.5348 139.164 86.1567 137.589 85.2013C136.04 84.2976 135.73 84.2201 135.73 84.814C135.73 85.5887 134.155 89.1779 132.941 91.1146C132.295 92.1733 131.03 94.0841 130.126 95.3494L128.525 97.6476ZM158.453 107.486C159.194 107.915 157.911 108.544 157.601 108.648C155.777 108.803 153.628 108.46 151.869 107.434C150.948 106.782 143.703 102.756 138.896 100.086C136.699 98.8651 135.011 97.9276 134.671 97.725C133.587 97.0795 132.554 96.3823 132.373 96.1757C131.831 95.4785 132.347 95.1686 133.871 95.2977C134.786 95.3754 156.854 106.559 158.453 107.486Z" fill="white"/>
<path d="M109.985 99.9716C109.314 99.7392 108.591 99.2227 108.126 98.6288L107.352 97.6734L110.089 94.9621C114.298 90.8306 117.396 86.3153 120.185 81.28C121.115 79.6016 123.878 72.8326 124.213 72.0837C124.73 70.9992 125.117 70.5861 126.227 69.9663C127.544 69.1917 129.042 68.9335 129.688 69.3724C130.927 70.1987 130.927 72.8068 129.688 77.2998C128.319 82.2318 126.486 85.7694 122.69 90.8564C122.096 91.631 120.986 93.1545 120.185 94.2132C118.042 97.0537 116.648 98.4222 114.762 99.4809C112.903 100.514 111.819 100.643 109.985 99.9716Z" fill="white"/>
<path d="M119.72 99.3776L119.178 98.8354C119.178 98.8354 128.178 87.4006 129.791 83.1872C131.021 79.9718 131.746 79.0601 132.723 79.0601C133.269 79.0601 133.716 79.1848 133.922 79.4947C134.284 80.0369 134.632 80.7083 134.167 83.0065C133.393 86.7248 132.205 89.1779 128.641 94.4715C127.815 95.6851 126.756 97.0278 126.291 97.4926C125.207 98.4997 122.767 99.5326 121.347 99.765C120.443 99.8941 120.185 99.8424 119.72 99.3776Z" fill="white"/>
<path fill-rule="evenodd" clip-rule="evenodd" d="M134.838 87.4206C135.359 86.2292 135.73 85.19 135.73 84.814C135.73 84.2201 136.04 84.2976 137.589 85.2013C139.164 86.1567 151.894 92.5348 158.402 95.6593C160.829 96.8212 162.843 97.48 162.843 97.6091C162.843 97.7382 134.286 88.6837 134.838 87.4206Z" fill="#E7EAEE"/>
<path fill-rule="evenodd" clip-rule="evenodd" d="M46.4886 88.8939C43.2092 86.7507 38.2514 81.7153 35.8499 78.1261C32.4156 72.9617 30.1433 67.4358 29.0329 61.4967C28.2324 57.1844 28.2583 50.5481 29.0587 46.7007C29.885 42.7757 30.9438 39.7803 32.8288 35.9845C35.0236 31.5948 37.3476 28.367 40.8336 24.881C44.2521 21.4626 29.0587 35.5993 32.8288 60.8931C35.8499 82.0891 48.8339 90.4391 46.4886 88.8939Z" fill="#E7EAEE"/>
</svg>
