<svg width="21" height="20" viewBox="0 0 21 20" fill="none" xmlns="http://www.w3.org/2000/svg">
<path fill-rule="evenodd" clip-rule="evenodd" d="M10.0804 2.5C5.93827 2.5 2.5804 5.85787 2.5804 10C2.5804 14.1421 5.93827 17.5 10.0804 17.5C14.2225 17.5 17.5804 14.1421 17.5804 10C17.5804 5.85787 14.2225 2.5 10.0804 2.5ZM1.74707 10C1.74707 5.39763 5.47803 1.66667 10.0804 1.66667C14.6828 1.66667 18.4137 5.39763 18.4137 10C18.4137 14.6024 14.6828 18.3333 10.0804 18.3333C5.47803 18.3333 1.74707 14.6024 1.74707 10Z" fill="#2AB514"/>
<path fill-rule="evenodd" clip-rule="evenodd" d="M5.91309 10C5.91309 9.76988 6.09963 9.58333 6.32975 9.58333H13.8298C14.0599 9.58333 14.2464 9.76988 14.2464 10C14.2464 10.2301 14.0599 10.4167 13.8298 10.4167H6.32975C6.09963 10.4167 5.91309 10.2301 5.91309 10Z" fill="#2AB514"/>
<path fill-rule="evenodd" clip-rule="evenodd" d="M10.0798 5.83333C10.3099 5.83333 10.4964 6.01988 10.4964 6.25V13.75C10.4964 13.9801 10.3099 14.1667 10.0798 14.1667C9.84963 14.1667 9.66309 13.9801 9.66309 13.75V6.25C9.66309 6.01988 9.84963 5.83333 10.0798 5.83333Z" fill="#2AB514"/>
</svg>
