<svg width="20" height="20" viewBox="0 0 20 20" fill="none" xmlns="http://www.w3.org/2000/svg">
    <path d="M12.9882 8.88084L9.6965 5.58917C9.54471 5.432 9.46071 5.2215 9.46261 5.003C9.46451 4.78451 9.55215 4.57549 9.70666 4.42099C9.86116 4.26648 10.0702 4.17884 10.2887 4.17694C10.5072 4.17504 10.7177 4.25904 10.8748 4.41084L15.589 9.125C15.6667 9.20221 15.7283 9.29402 15.7703 9.39513C15.8124 9.49624 15.834 9.60466 15.834 9.71417C15.834 9.82368 15.8124 9.9321 15.7703 10.0332C15.7283 10.1343 15.6667 10.2261 15.589 10.3033L10.8748 15.0175C10.798 15.0971 10.706 15.1606 10.6043 15.2043C10.5027 15.2479 10.3933 15.2709 10.2827 15.2719C10.172 15.2728 10.0623 15.2518 9.95988 15.2099C9.85746 15.168 9.76442 15.1061 9.68618 15.0278C9.60793 14.9496 9.54605 14.8565 9.50415 14.7541C9.46225 14.6517 9.44117 14.542 9.44213 14.4313C9.44309 14.3207 9.46608 14.2113 9.50975 14.1097C9.55343 14.008 9.61691 13.916 9.6965 13.8392L12.9882 10.5475H4.99984C4.77882 10.5475 4.56686 10.4597 4.41058 10.3034C4.2543 10.1471 4.1665 9.93518 4.1665 9.71417C4.1665 9.49316 4.2543 9.2812 4.41058 9.12491C4.56686 8.96863 4.77882 8.88084 4.99984 8.88084H12.9882Z" fill="#58636F"/>
</svg>
