<svg width="18" height="18" viewBox="0 0 18 18" fill="none" xmlns="http://www.w3.org/2000/svg">
    <path d="M9.05025 9.43075L12.5565 5.9245C12.6218 5.85684 12.7 5.80288 12.7864 5.76576C12.8728 5.72864 12.9658 5.7091 13.0598 5.70828C13.1539 5.70746 13.2472 5.72538 13.3342 5.761C13.4213 5.79661 13.5004 5.84921 13.5669 5.91572C13.6334 5.98223 13.686 6.06131 13.7216 6.14836C13.7572 6.23542 13.7751 6.32869 13.7743 6.42274C13.7735 6.51679 13.7539 6.60974 13.7168 6.69616C13.6797 6.78258 13.6257 6.86074 13.5581 6.92608L9.55104 10.9331C9.41821 11.0659 9.23808 11.1405 9.05025 11.1405C8.86243 11.1405 8.68229 11.0659 8.54946 10.9331L4.54242 6.92608C4.47476 6.86074 4.4208 6.78258 4.38368 6.69616C4.34656 6.60974 4.32702 6.51679 4.3262 6.42274C4.32538 6.32869 4.3433 6.23542 4.37892 6.14836C4.41453 6.06131 4.46713 5.98223 4.53364 5.91572C4.60015 5.84921 4.67923 5.79661 4.76628 5.761C4.85334 5.72538 4.94661 5.70746 5.04066 5.70828C5.13471 5.7091 5.22766 5.72864 5.31408 5.76576C5.4005 5.80288 5.47866 5.85684 5.544 5.9245L9.05025 9.43075Z" fill="#152536"/>
</svg>
