<svg width="20" height="20" viewBox="0 0 20 20" fill="none" xmlns="http://www.w3.org/2000/svg">
<path d="M10.8337 9.16675H14.167C14.388 9.16675 14.6 9.25455 14.7562 9.41083C14.9125 9.56711 15.0003 9.77907 15.0003 10.0001C15.0003 10.2211 14.9125 10.4331 14.7562 10.5893C14.6 10.7456 14.388 10.8334 14.167 10.8334H10.0003C9.77931 10.8334 9.56735 10.7456 9.41107 10.5893C9.25479 10.4331 9.16699 10.2211 9.16699 10.0001V5.00008C9.16699 4.77907 9.25479 4.56711 9.41107 4.41083C9.56735 4.25455 9.77931 4.16675 10.0003 4.16675C10.2213 4.16675 10.4333 4.25455 10.5896 4.41083C10.7459 4.56711 10.8337 4.77907 10.8337 5.00008V9.16675ZM10.0003 18.3334C5.39783 18.3334 1.66699 14.6026 1.66699 10.0001C1.66699 5.39758 5.39783 1.66675 10.0003 1.66675C14.6028 1.66675 18.3337 5.39758 18.3337 10.0001C18.3337 14.6026 14.6028 18.3334 10.0003 18.3334ZM10.0003 16.6667C11.7684 16.6667 13.4641 15.9644 14.7144 14.7141C15.9646 13.4639 16.667 11.7682 16.667 10.0001C16.667 8.23197 15.9646 6.53628 14.7144 5.28604C13.4641 4.03579 11.7684 3.33341 10.0003 3.33341C8.23222 3.33341 6.53652 4.03579 5.28628 5.28604C4.03604 6.53628 3.33366 8.23197 3.33366 10.0001C3.33366 11.7682 4.03604 13.4639 5.28628 14.7141C6.53652 15.9644 8.23222 16.6667 10.0003 16.6667Z" fill="#2AB514"/>
</svg>
