<svg width="21" height="21" viewBox="0 0 21 21" fill="none" xmlns="http://www.w3.org/2000/svg">
<path fill-rule="evenodd" clip-rule="evenodd" d="M8.63036 4.48983C8.79991 4.32028 9.02988 4.22502 9.26966 4.22502H12.2779C12.5177 4.22502 12.7476 4.32028 12.9172 4.48983C13.0867 4.65939 13.182 4.88935 13.182 5.12914V6.03325H8.36555V5.12914C8.36555 4.88935 8.46081 4.65939 8.63036 4.48983ZM14.382 5.12914V6.03325H16.0382C16.0406 6.03325 16.0429 6.03326 16.0453 6.03329H17.5423C17.8737 6.03329 18.1423 6.30192 18.1423 6.63329C18.1423 6.96466 17.8737 7.23329 17.5423 7.23329H16.5938L15.886 16.4349C15.8795 16.984 15.6585 17.5091 15.2698 17.8978C14.8752 18.2924 14.34 18.5141 13.782 18.5141H7.76555C7.20751 18.5141 6.67232 18.2924 6.27772 17.8978C5.88901 17.5091 5.66809 16.984 5.66159 16.4349L4.95377 7.23329H4.00527C3.6739 7.23329 3.40527 6.96466 3.40527 6.63329C3.40527 6.30192 3.6739 6.03329 4.00527 6.03329H5.50224C5.50462 6.03326 5.507 6.03325 5.50938 6.03325H7.16555V5.12914C7.16555 4.57109 7.38723 4.0359 7.78183 3.6413C8.17643 3.24671 8.71162 3.02502 9.26966 3.02502H12.2779C12.8359 3.02502 13.3711 3.24671 13.7657 3.6413C14.1603 4.0359 14.382 4.57109 14.382 5.12914ZM6.15731 7.23329L6.85967 16.364C6.86085 16.3793 6.86144 16.3946 6.86144 16.41C6.86144 16.6498 6.95669 16.8797 7.12625 17.0493C7.2958 17.2188 7.52577 17.3141 7.76555 17.3141H13.782C14.0218 17.3141 14.2517 17.2188 14.4213 17.0493C14.5909 16.8797 14.6861 16.6498 14.6861 16.41C14.6861 16.3946 14.6867 16.3793 14.6879 16.364L15.3902 7.23329H6.15731Z" fill="#2AB514"/>
</svg>
