<svg width="20" height="20" viewBox="0 0 20 20" fill="none" xmlns="http://www.w3.org/2000/svg">
    <path fill-rule="evenodd" clip-rule="evenodd" d="M8.66454 3.98995C8.83409 3.8204 9.06406 3.72515 9.30384 3.72515H12.3121C12.5519 3.72515 12.7818 3.8204 12.9514 3.98995C13.1209 4.15951 13.2162 4.38947 13.2162 4.62926V5.53337H8.39973V4.62926C8.39973 4.38947 8.49498 4.15951 8.66454 3.98995ZM14.4162 4.62926V5.53337H16.0723C16.0747 5.53337 16.0771 5.53339 16.0795 5.53341H17.5765C17.9078 5.53341 18.1765 5.80204 18.1765 6.13341C18.1765 6.46478 17.9078 6.73341 17.5765 6.73341H16.628L15.9201 15.9351C15.9136 16.4841 15.6927 17.0092 15.304 17.3979C14.9094 17.7925 14.3742 18.0142 13.8162 18.0142H7.79973C7.24168 18.0142 6.7065 17.7925 6.3119 17.3979C5.92319 17.0092 5.70227 16.4841 5.69577 15.9351L4.98795 6.73341H4.03945C3.70808 6.73341 3.43945 6.46478 3.43945 6.13341C3.43945 5.80204 3.70808 5.53341 4.03945 5.53341H5.53642C5.5388 5.53339 5.54118 5.53337 5.54356 5.53337H7.19973V4.62926C7.19973 4.07121 7.42141 3.53602 7.81601 3.14143C8.21061 2.74683 8.7458 2.52515 9.30384 2.52515H12.3121C12.8701 2.52515 13.4053 2.74683 13.7999 3.14143C14.1945 3.53602 14.4162 4.07121 14.4162 4.62926ZM6.19149 6.73341L6.89385 15.8641C6.89503 15.8794 6.89562 15.8947 6.89562 15.9101C6.89562 16.1499 6.99087 16.3799 7.16043 16.5494C7.32998 16.719 7.55995 16.8142 7.79973 16.8142H13.8162C14.056 16.8142 14.2859 16.719 14.4555 16.5494C14.625 16.3799 14.7203 16.1499 14.7203 15.9101C14.7203 15.8947 14.7209 15.8794 14.7221 15.8641L15.4244 6.73341H6.19149Z" fill="#484964"/>
</svg>
