<svg width="20" height="20" viewBox="0 0 20 20" fill="none" xmlns="http://www.w3.org/2000/svg">
<path fill-rule="evenodd" clip-rule="evenodd" d="M16.9557 3.04054C16.2351 2.31993 15.0739 2.31993 14.3533 3.04054L3.65649 13.7456L2.67801 17.3266L6.25879 16.3481L16.9556 5.64307C17.6762 4.92245 17.6763 3.76116 16.9557 3.04054ZM13.764 2.45129C14.8101 1.40524 16.4989 1.40524 17.545 2.45129C18.591 3.49734 18.591 5.18616 17.545 6.23221L6.77008 17.0154C6.71883 17.0667 6.65509 17.1037 6.58516 17.1228L2.19349 18.3228C2.04919 18.3623 1.89482 18.3213 1.78904 18.2155C1.68326 18.1098 1.64231 17.9554 1.68174 17.8111L2.88174 13.4194C2.90082 13.3496 2.93776 13.2859 2.98893 13.2347L13.764 2.45129Z" fill="#2AB514"/>
</svg>
