<svg width="142" height="23" viewBox="0 0 142 23" fill="none" xmlns="http://www.w3.org/2000/svg">
<path d="M21.8248 14.3206L14.3206 21.8248C12.7536 23.3917 10.229 23.3917 8.662 21.8248L1.17525 14.3206C-0.391749 12.7536 -0.391749 10.229 1.17525 8.662L8.67941 1.17525C10.2464 -0.391749 12.771 -0.391749 14.338 1.17525L21.8422 8.67941C23.3918 10.2464 23.3918 12.771 21.8248 14.3206Z" fill="url(#paint0_linear_135_424)"/>
<path d="M22.9035 12.3358C22.7468 13.0671 22.3812 13.7635 21.824 14.3207L14.3199 21.8248C12.7529 23.3918 10.2283 23.3918 8.66127 21.8248L1.34863 14.5122C1.62721 14.7733 3.9777 16.7582 9.74076 14.4774C14.9293 12.4229 18.0458 11.3956 22.9035 12.3358Z" fill="url(#paint1_linear_135_424)"/>
<path d="M49.9943 10.0897C49.089 9.16689 47.9398 8.7142 46.5818 8.7142C45.2063 8.7142 44.0398 9.20171 43.0473 10.1767C42.0723 11.1518 41.5674 12.3357 41.5674 13.6938C41.5674 15.0692 42.0723 16.2358 43.0647 17.2108C44.0572 18.1858 45.2585 18.6733 46.6688 18.6733C47.1737 18.6733 47.6438 18.6211 48.1139 18.4992C48.584 18.3773 48.9671 18.2555 49.2631 18.0988C49.5591 17.9421 49.8376 17.7854 50.0988 17.5938C50.1684 17.5416 50.2207 17.5068 50.2729 17.4546L48.7233 15.8701C48.584 15.9572 48.4273 16.0443 48.2358 16.1313C47.8179 16.3228 47.3479 16.4273 46.8603 16.4273C46.1639 16.4273 45.6067 16.2532 45.1541 15.8876C44.7014 15.5219 44.4228 15.0866 44.3183 14.5643H51.2653L51.3524 13.5022C51.3698 12.1442 50.9171 11.0125 49.9943 10.0897ZM44.3183 12.7362C44.475 12.2138 44.7536 11.796 45.1366 11.4651C45.5371 11.1343 46.0072 10.9776 46.5644 10.9776C47.1215 10.9776 47.5916 11.1518 47.9921 11.4826C48.3751 11.8134 48.6189 12.2312 48.7233 12.7362H44.3183Z" fill="#4B5F33"/>
<path d="M68.2761 10.0897C67.3707 9.16689 66.2216 8.7142 64.8635 8.7142C63.488 8.7142 62.3215 9.20171 61.3291 10.1767C60.354 11.1518 59.8491 12.3357 59.8491 13.6938C59.8491 15.0692 60.354 16.2358 61.3465 17.2108C62.3389 18.1858 63.5403 18.6733 64.9506 18.6733C65.4555 18.6733 65.9256 18.6211 66.3957 18.4992C66.8658 18.3773 67.2488 18.2555 67.5448 18.0988C67.8408 17.9421 68.1194 17.7854 68.3805 17.5938C68.4502 17.5416 68.5024 17.5068 68.5546 17.4546L67.0051 15.8701C66.8658 15.9572 66.7091 16.0443 66.5176 16.1313C66.0997 16.3228 65.6296 16.4273 65.1421 16.4273C64.4456 16.4273 63.8885 16.2532 63.4358 15.8876C62.9831 15.5219 62.7045 15.0866 62.6001 14.5643H69.5471L69.6341 13.5022C69.6515 12.1442 69.1989 11.0125 68.2761 10.0897ZM62.6001 12.7362C62.7568 12.2138 63.0353 11.796 63.4184 11.4651C63.8188 11.1343 64.2889 10.9776 64.8461 10.9776C65.4032 10.9776 65.8733 11.1518 66.2738 11.4826C66.6568 11.8134 66.9006 12.2312 67.0051 12.7362H62.6001Z" fill="#4B5F33"/>
<path d="M81.7697 8.83617H78.5835L74.1089 13.572V4.90128H71.4624V18.4297H74.1089V16.8801L75.7107 15.1912L78.7925 18.3948H81.9613L77.2951 13.5372L81.7697 8.83617Z" fill="#4B5F33"/>
<path d="M90.2512 10.0897C89.3458 9.16689 88.1967 8.7142 86.8386 8.7142C85.4631 8.7142 84.2966 9.20171 83.3042 10.1767C82.3291 11.1518 81.8242 12.3357 81.8242 13.6938C81.8242 15.0692 82.3291 16.2358 83.3216 17.2108C84.314 18.1858 85.5154 18.6733 86.9257 18.6733C87.4306 18.6733 87.9007 18.6211 88.3708 18.4992C88.8409 18.3773 89.2239 18.2555 89.5199 18.0988C89.8159 17.9421 90.0945 17.7854 90.3556 17.5938C90.4253 17.5416 90.4775 17.5068 90.5297 17.4546L88.9802 15.8701C88.8409 15.9572 88.6842 16.0443 88.4926 16.1313C88.0748 16.3228 87.6047 16.4273 87.1172 16.4273C86.4207 16.4273 85.8636 16.2532 85.4109 15.8876C84.9582 15.5219 84.6796 15.0866 84.5752 14.5643H91.5222L91.6092 13.5022C91.6092 12.1442 91.1565 11.0125 90.2512 10.0897ZM84.5752 12.7362C84.7319 12.2138 85.0104 11.796 85.3935 11.4651C85.7939 11.1343 86.264 10.9776 86.8212 10.9776C87.3783 10.9776 87.8484 11.1518 88.2489 11.4826C88.6319 11.8134 88.8757 12.2312 88.9802 12.7362H84.5752Z" fill="#4B5F33"/>
<path d="M116.106 18.4295V17.4545C116.036 17.5416 115.914 17.646 115.792 17.7853C115.653 17.9246 115.357 18.0813 114.904 18.3076C114.452 18.5166 113.964 18.621 113.477 18.621C112.519 18.621 111.736 18.3599 111.144 17.8201C110.552 17.2804 110.238 16.6362 110.238 15.8875C110.238 15.104 110.482 14.4424 110.987 13.9201C111.492 13.3977 112.188 13.0495 113.076 12.8928L116.123 12.3531C116.123 11.9526 115.984 11.6218 115.688 11.3606C115.392 11.0995 114.991 10.9776 114.469 10.9776C114.034 10.9776 113.633 11.0646 113.285 11.2213C112.937 11.378 112.676 11.5521 112.537 11.7263L112.31 11.9526L110.848 10.4901C110.882 10.4378 110.935 10.3682 111.004 10.2811C111.074 10.1941 111.213 10.0548 111.457 9.82845C111.683 9.61952 111.945 9.428 112.223 9.2713C112.502 9.1146 112.85 8.9579 113.303 8.81861C113.755 8.67932 114.208 8.60968 114.661 8.60968C115.879 8.60968 116.854 8.97531 117.621 9.68917C118.387 10.4204 118.77 11.3258 118.77 12.4227V18.3947H116.106V18.4295ZM114.156 16.5491C114.748 16.5491 115.235 16.3576 115.583 15.9746C115.932 15.5915 116.106 15.0692 116.106 14.3901V14.0942L113.964 14.4946C113.25 14.6165 112.885 14.9647 112.885 15.5741C112.885 16.2183 113.303 16.5491 114.156 16.5491Z" fill="#4B5F33"/>
<path d="M123.19 8.83614V10.0201C123.26 9.91563 123.382 9.79375 123.521 9.63705C123.661 9.48035 123.974 9.28883 124.444 9.02767C124.914 8.7665 125.419 8.64462 125.941 8.64462C127.038 8.64462 127.926 9.02767 128.623 9.77634C129.319 10.5424 129.667 11.5523 129.667 12.8407V18.4296H127.038V13.1541C127.038 12.5621 126.864 12.092 126.516 11.7264C126.168 11.3607 125.715 11.1866 125.175 11.1866C124.583 11.1866 124.096 11.3782 123.748 11.7786C123.399 12.1791 123.225 12.7188 123.225 13.4501V18.447H120.596V8.83614H123.19Z" fill="#4B5F33"/>
<path d="M141.768 8.83617H138.599L134.124 13.572V4.90128H131.478V18.4297H134.124V16.8801L135.726 15.1912L138.791 18.3948H141.959L137.293 13.5372L141.768 8.83617Z" fill="#4B5F33"/>
<path d="M58.7185 8.59227C58.1788 8.59227 57.6739 8.71415 57.1864 8.9579C56.6988 9.20166 56.3854 9.39318 56.2462 9.53247C56.1069 9.67175 55.985 9.79363 55.9153 9.88069L54.714 8.67933H53.1992V18.4121H55.9153V13.7459C55.9153 12.9102 56.1243 12.266 56.5421 11.8307C56.96 11.378 57.5172 11.1691 58.231 11.1691C58.6315 11.1691 58.9275 11.2039 59.1364 11.2736V8.59227H58.7185Z" fill="#4B5F33"/>
<path d="M29.9048 4.60522H34.362C37.9487 4.60522 39.5505 6.08516 39.5505 8.26155C39.5505 9.7589 38.68 10.821 37.113 11.3607C39.0282 11.9179 39.9336 13.0322 39.9336 14.5121C39.9336 16.9671 37.5308 18.4122 34.362 18.4122H29.9048V4.60522ZM32.8821 6.85125V10.4902H34.1183C36.1205 10.5076 36.9911 9.6022 36.9911 8.57494C36.9911 7.63475 36.2772 6.86866 34.4665 6.86866H32.8821V6.85125ZM32.8821 12.3357V16.1662H34.4665C36.5558 16.1662 37.2522 15.2608 37.2522 14.2335C37.2522 13.2933 36.4513 12.3357 33.8571 12.3357H32.8821Z" fill="#4B5F33"/>
<path d="M98.6943 4.62268H103.152C106.738 4.62268 108.34 6.10262 108.34 8.279C108.34 9.77635 107.47 10.8384 105.903 11.3782C107.818 11.9353 108.723 13.0496 108.723 14.5296C108.723 16.9845 106.32 18.4296 103.152 18.4296H98.6943V4.62268ZM101.689 6.86871V10.5076H102.925C104.928 10.525 105.798 9.61965 105.798 8.5924C105.798 7.6522 105.084 6.88612 103.273 6.88612H101.689V6.86871ZM101.689 12.3706V16.201H103.273C105.363 16.201 106.059 15.2957 106.059 14.2684C106.059 13.3282 105.258 12.3706 102.664 12.3706H101.689Z" fill="#4B5F33"/>
<defs>
<linearGradient id="paint0_linear_135_424" x1="11.4988" y1="23.0013" x2="11.4988" y2="0.00506604" gradientUnits="userSpaceOnUse">
<stop offset="0.3855" stop-color="#9AB54C"/>
<stop offset="0.9441" stop-color="#4B5F33"/>
</linearGradient>
<linearGradient id="paint1_linear_135_424" x1="13.7596" y1="22.664" x2="11.9923" y2="12.6408" gradientUnits="userSpaceOnUse">
<stop offset="0.4581" stop-color="#9AB54C"/>
<stop offset="0.5575" stop-color="#93AE4A"/>
<stop offset="0.7037" stop-color="#819A44"/>
<stop offset="0.8779" stop-color="#647A3B"/>
<stop offset="1" stop-color="#4B5F33"/>
</linearGradient>
</defs>
</svg>
