<svg width="24" height="24" viewBox="0 0 24 24" fill="none" xmlns="http://www.w3.org/2000/svg">
    <path d="M6.25016 4.66667C5.69763 4.66667 5.16772 4.88616 4.77702 5.27686C4.38632 5.66756 4.16683 6.19747 4.16683 6.75V19.25C4.16683 19.8025 4.38632 20.3324 4.77702 20.7231C5.16772 21.1138 5.69763 21.3333 6.25016 21.3333H18.7502C19.3027 21.3333 19.8326 21.1138 20.2233 20.7231C20.614 20.3324 20.8335 19.8025 20.8335 19.25V6.75C20.8335 6.19747 20.614 5.66756 20.2233 5.27686C19.8326 4.88616 19.3027 4.66667 18.7502 4.66667H6.25016ZM6.25016 2.58334H18.7502C19.8552 2.58334 20.915 3.02232 21.6964 3.80372C22.4778 4.58513 22.9168 5.64493 22.9168 6.75V19.25C22.9168 20.3551 22.4778 21.4149 21.6964 22.1963C20.915 22.9777 19.8552 23.4167 18.7502 23.4167H6.25016C5.14509 23.4167 4.08529 22.9777 3.30388 22.1963C2.52248 21.4149 2.0835 20.3551 2.0835 19.25V6.75C2.0835 5.64493 2.52248 4.58513 3.30388 3.80372C4.08529 3.02232 5.14509 2.58334 6.25016 2.58334V2.58334ZM13.5418 14.0417V18.2083C13.5418 18.4846 13.4321 18.7496 13.2367 18.9449C13.0414 19.1403 12.7764 19.25 12.5002 19.25C12.2239 19.25 11.9589 19.1403 11.7636 18.9449C11.5682 18.7496 11.4585 18.4846 11.4585 18.2083V14.0417H7.29183C7.01556 14.0417 6.75061 13.9319 6.55526 13.7366C6.35991 13.5412 6.25016 13.2763 6.25016 13C6.25016 12.7237 6.35991 12.4588 6.55526 12.2634C6.75061 12.0681 7.01556 11.9583 7.29183 11.9583H11.4585V7.79167C11.4585 7.5154 11.5682 7.25045 11.7636 7.0551C11.9589 6.85975 12.2239 6.75 12.5002 6.75C12.7764 6.75 13.0414 6.85975 13.2367 7.0551C13.4321 7.25045 13.5418 7.5154 13.5418 7.79167V11.9583H17.7085C17.9848 11.9583 18.2497 12.0681 18.4451 12.2634C18.6404 12.4588 18.7502 12.7237 18.7502 13C18.7502 13.2763 18.6404 13.5412 18.4451 13.7366C18.2497 13.9319 17.9848 14.0417 17.7085 14.0417H13.5418Z" fill="#152536" fill-opacity="0.7"/>
</svg>
