<svg width="24" height="24" viewBox="0 0 24 24" fill="none" xmlns="http://www.w3.org/2000/svg">
    <path d="M12.5002 23.4167C6.74704 23.4167 2.0835 18.7531 2.0835 13C2.0835 7.24688 6.74704 2.58334 12.5002 2.58334C18.2533 2.58334 22.9168 7.24688 22.9168 13C22.9168 18.7531 18.2533 23.4167 12.5002 23.4167ZM12.5002 21.3333C14.7103 21.3333 16.8299 20.4554 18.3927 18.8926C19.9555 17.3298 20.8335 15.2101 20.8335 13C20.8335 10.7899 19.9555 8.67025 18.3927 7.10745C16.8299 5.54464 14.7103 4.66667 12.5002 4.66667C10.29 4.66667 8.17041 5.54464 6.60761 7.10745C5.0448 8.67025 4.16683 10.7899 4.16683 13C4.16683 15.2101 5.0448 17.3298 6.60761 18.8926C8.17041 20.4554 10.29 21.3333 12.5002 21.3333ZM12.5002 6.75C13.6052 6.75 14.665 7.18899 15.4464 7.97039C16.2278 8.75179 16.6668 9.8116 16.6668 10.9167V13C16.6668 14.1051 16.2278 15.1649 15.4464 15.9463C14.665 16.7277 13.6052 17.1667 12.5002 17.1667C11.3951 17.1667 10.3353 16.7277 9.55388 15.9463C8.77248 15.1649 8.3335 14.1051 8.3335 13V10.9167C8.3335 9.8116 8.77248 8.75179 9.55388 7.97039C10.3353 7.18899 11.3951 6.75 12.5002 6.75ZM12.5002 8.83334C11.9476 8.83334 11.4177 9.05283 11.027 9.44353C10.6363 9.83423 10.4168 10.3641 10.4168 10.9167V13C10.4168 13.5525 10.6363 14.0824 11.027 14.4731C11.4177 14.8638 11.9476 15.0833 12.5002 15.0833C13.0527 15.0833 13.5826 14.8638 13.9733 14.4731C14.364 14.0824 14.5835 13.5525 14.5835 13V10.9167C14.5835 10.3641 14.364 9.83423 13.9733 9.44353C13.5826 9.05283 13.0527 8.83334 12.5002 8.83334ZM8.23975 20.1625C7.63973 19.8051 7.08682 19.374 6.59391 18.8792C7.21264 18.1521 8.00123 17.5889 8.88975 17.2396C9.01781 17.1849 9.15554 17.1565 9.29478 17.156C9.43401 17.1555 9.57194 17.1829 9.7004 17.2367C9.82886 17.2904 9.94525 17.3693 10.0427 17.4688C10.1401 17.5682 10.2166 17.6862 10.2677 17.8158C10.3187 17.9453 10.3433 18.0838 10.3399 18.223C10.3365 18.3622 10.3053 18.4993 10.248 18.6262C10.1907 18.7531 10.1086 18.8672 10.0064 18.9619C9.90428 19.0565 9.7842 19.1297 9.65329 19.1771C9.09912 19.3958 8.61891 19.7375 8.2387 20.1625H8.23975ZM16.7231 20.1854C16.3198 19.7393 15.8164 19.3952 15.2543 19.1813C15.1226 19.1355 15.0014 19.0638 14.8979 18.9704C14.7944 18.877 14.7107 18.7637 14.6518 18.6374C14.5928 18.511 14.5599 18.3741 14.5548 18.2347C14.5498 18.0954 14.5728 17.9564 14.6225 17.8262C14.6721 17.6959 14.7475 17.5769 14.844 17.4762C14.9405 17.3756 15.0562 17.2953 15.1843 17.2402C15.3124 17.1852 15.4502 17.1563 15.5896 17.1555C15.7291 17.1547 15.8673 17.1819 15.996 17.2354C16.9166 17.5855 17.7347 18.1611 18.3752 18.9094C17.8799 19.402 17.3249 19.8307 16.7231 20.1854Z" fill="#152536" fill-opacity="0.7"/>
</svg>
