<svg width="24" height="24" viewBox="0 0 24 24" fill="none" xmlns="http://www.w3.org/2000/svg">
    <path d="M11.1441 16.5516C11.932 16.5516 12.7122 16.3959 13.4402 16.0935C14.1681 15.791 14.8295 15.3477 15.3867 14.7888C15.9439 14.2299 16.3858 13.5664 16.6873 12.8361C16.9889 12.1059 17.1441 11.3232 17.1441 10.5328C17.1441 9.74245 16.9889 8.95979 16.6873 8.22956C16.3858 7.49933 15.9439 6.83583 15.3867 6.27693C14.8295 5.71804 14.1681 5.2747 13.4402 4.97223C12.7122 4.66976 11.932 4.51408 11.1441 4.51408C9.55276 4.51408 8.02664 5.1482 6.90142 6.27693C5.7762 7.40567 5.14406 8.93657 5.14406 10.5328C5.14406 12.1291 5.7762 13.66 6.90142 14.7888C8.02664 15.9175 9.55276 16.5516 11.1441 16.5516V16.5516ZM17.4641 15.4542L21.0441 19.0454C21.1395 19.138 21.2156 19.2487 21.2679 19.3712C21.3202 19.4936 21.3477 19.6252 21.3488 19.7584C21.3499 19.8916 21.3245 20.0237 21.2741 20.1469C21.2237 20.2702 21.1494 20.3821 21.0554 20.4763C20.9615 20.5704 20.8498 20.6448 20.7268 20.6951C20.6039 20.7455 20.4722 20.7708 20.3394 20.7695C20.2067 20.7683 20.0755 20.7405 19.9535 20.6878C19.8315 20.6352 19.7212 20.5587 19.6291 20.4628L16.0491 16.8716C14.4415 18.1234 12.4189 18.7135 10.3928 18.522C8.36677 18.3304 6.48966 17.3715 5.14361 15.8405C3.79755 14.3094 3.08374 12.3214 3.14748 10.281C3.21122 8.2406 4.04773 6.30127 5.4867 4.8578C6.92568 3.41432 8.85896 2.5752 10.893 2.51126C12.927 2.44732 14.9089 3.16336 16.4351 4.51363C17.9614 5.86389 18.9173 7.74687 19.1083 9.77925C19.2992 11.8116 18.7109 13.8406 17.4631 15.4532L17.4641 15.4542Z" fill="black"/>
</svg>
