<svg width="24" height="24" viewBox="0 0 24 24" fill="none" xmlns="http://www.w3.org/2000/svg">
<g clip-path="url(#clip0_9_198988)">
<path d="M13.473 2.34893C13.3245 2.09027 13.1104 1.87538 12.8523 1.72594C12.5942 1.5765 12.3013 1.4978 12.003 1.4978C11.7048 1.4978 11.4118 1.5765 11.1537 1.72594C10.8956 1.87538 10.6815 2.09027 10.533 2.34893L0.24751 19.8494C-0.43799 21.0164 0.38401 22.4999 1.71751 22.4999H22.287C23.6205 22.4999 24.444 21.0149 23.757 19.8494L13.473 2.34893ZM12 7.49993C12.8025 7.49993 13.431 8.19293 13.35 8.99243L12.825 14.2529C12.8074 14.4596 12.7128 14.6521 12.56 14.7924C12.4073 14.9327 12.2074 15.0105 12 15.0105C11.7926 15.0105 11.5927 14.9327 11.44 14.7924C11.2872 14.6521 11.1927 14.4596 11.175 14.2529L10.65 8.99243C10.6312 8.80378 10.652 8.61327 10.7113 8.43318C10.7705 8.25308 10.8668 8.0874 10.994 7.94679C11.1212 7.80619 11.2764 7.69378 11.4497 7.61682C11.623 7.53985 11.8104 7.50003 12 7.49993V7.49993ZM12.003 16.4999C12.4008 16.4999 12.7824 16.658 13.0637 16.9393C13.345 17.2206 13.503 17.6021 13.503 17.9999C13.503 18.3978 13.345 18.7793 13.0637 19.0606C12.7824 19.3419 12.4008 19.4999 12.003 19.4999C11.6052 19.4999 11.2237 19.3419 10.9424 19.0606C10.661 18.7793 10.503 18.3978 10.503 17.9999C10.503 17.6021 10.661 17.2206 10.9424 16.9393C11.2237 16.658 11.6052 16.4999 12.003 16.4999Z" fill="#FFC107"/>
</g>
<defs>
<clipPath id="clip0_9_198988">
<rect width="24" height="24" fill="white"/>
</clipPath>
</defs>
</svg>
